<svg xmlns="http://www.w3.org/2000/svg" xmlns:xlink="http://www.w3.org/1999/xlink" width="1920" zoomAndPan="magnify" viewBox="0 0 1440 409.91998" height="536" preserveAspectRatio="xMidYMid meet" version="1.0"><defs><g/><clipPath id="06af9a4b3b"><rect x="0" width="1268" y="0" height="399"/></clipPath></defs><g transform="matrix(1, 0, 0, 1, 86, 0)"><g clip-path="url(#06af9a4b3b)"><g fill="#00ffff" fill-opacity="1"><g transform="translate(1.797984, 329.037432)"><g><path d="M 68.3125 -168.171875 L 68.3125 -51.890625 L 184.59375 -51.890625 L 184.59375 -168.171875 Z M 16.421875 0 L 16.421875 -220.0625 L 236.484375 -220.0625 L 236.484375 0 Z M 16.421875 0 "/></g></g></g><g fill="#00ffff" fill-opacity="1"><g transform="translate(254.709694, 329.037432)"><g><path d="M 16.421875 -51.890625 L 184.59375 -51.890625 L 184.59375 -84.09375 L 16.421875 -84.09375 L 16.421875 -220.0625 L 236.484375 -220.0625 L 236.484375 -168.171875 L 68.3125 -168.171875 L 68.3125 -135.984375 L 236.484375 -135.984375 L 236.484375 0 L 16.421875 0 Z M 16.421875 -51.890625 "/></g></g></g><g fill="#00ffff" fill-opacity="1"><g transform="translate(507.621404, 329.037432)"><g><path d="M 16.421875 -220.0625 L 236.484375 -220.0625 L 236.484375 -168.171875 L 152.40625 -168.171875 L 152.40625 0 L 100.515625 0 L 100.515625 -168.171875 L 16.421875 -168.171875 Z M 16.421875 -220.0625 "/></g></g></g><g fill="#ffffff" fill-opacity="1"><g transform="translate(760.575386, 329.037432)"><g><path d="M 16.421875 -220.0625 L 236.484375 -220.0625 L 236.484375 -42.046875 L 194.125 -42.046875 L 235.828125 0 L 172.765625 0 L 131.71875 -42.046875 L 68.3125 -42.046875 L 68.3125 0 L 16.421875 0 Z M 68.3125 -93.9375 L 184.59375 -93.9375 L 184.59375 -168.171875 L 68.3125 -168.171875 Z M 68.3125 -93.9375 "/></g></g></g><g fill="#ffffff" fill-opacity="1"><g transform="translate(1013.487096, 329.037432)"><g><path d="M 236.484375 -220.0625 L 236.484375 0 L 184.59375 0 L 184.59375 -42.046875 L 68.3125 -42.046875 L 68.3125 0 L 16.421875 0 L 16.421875 -220.0625 Z M 68.3125 -93.9375 L 184.59375 -93.9375 L 184.59375 -168.171875 L 68.3125 -168.171875 Z M 68.3125 -93.9375 "/></g></g></g></g></g></svg>