<svg xmlns="http://www.w3.org/2000/svg" xmlns:xlink="http://www.w3.org/1999/xlink" width="1920" zoomAndPan="magnify" viewBox="0 0 1440 409.91998" height="536" preserveAspectRatio="xMidYMid meet" version="1.0"><defs><g/><clipPath id="b3de063017"><rect x="0" width="1268" y="0" height="399"/></clipPath></defs><g transform="matrix(1, 0, 0, 1, 86, 0)"><g clip-path="url(#b3de063017)"><g fill="#00ffff" fill-opacity="1"><g transform="translate(1.52749, 329.050366)"><g><path d="M 68.3125 -168.140625 L 68.3125 -51.890625 L 184.5625 -51.890625 L 184.5625 -168.140625 Z M 16.421875 0 L 16.421875 -220.03125 L 236.453125 -220.03125 L 236.453125 0 Z M 16.421875 0 "/></g></g></g><g fill="#00ffff" fill-opacity="1"><g transform="translate(254.39441, 329.050366)"><g><path d="M 16.421875 -51.890625 L 184.5625 -51.890625 L 184.5625 -84.078125 L 16.421875 -84.078125 L 16.421875 -220.03125 L 236.453125 -220.03125 L 236.453125 -168.140625 L 68.3125 -168.140625 L 68.3125 -135.953125 L 236.453125 -135.953125 L 236.453125 0 L 16.421875 0 Z M 16.421875 -51.890625 "/></g></g></g><g fill="#00ffff" fill-opacity="1"><g transform="translate(507.26133, 329.050366)"><g><path d="M 16.421875 -220.03125 L 236.453125 -220.03125 L 236.453125 -168.140625 L 152.375 -168.140625 L 152.375 0 L 100.484375 0 L 100.484375 -168.140625 L 16.421875 -168.140625 Z M 16.421875 -220.03125 "/></g></g></g><g fill="#000000" fill-opacity="1"><g transform="translate(760.170514, 329.050366)"><g><path d="M 16.421875 -220.03125 L 236.453125 -220.03125 L 236.453125 -42.03125 L 194.078125 -42.03125 L 235.796875 0 L 172.734375 0 L 131.6875 -42.03125 L 68.3125 -42.03125 L 68.3125 0 L 16.421875 0 Z M 68.3125 -93.921875 L 184.5625 -93.921875 L 184.5625 -168.140625 L 68.3125 -168.140625 Z M 68.3125 -93.921875 "/></g></g></g><g fill="#000000" fill-opacity="1"><g transform="translate(1013.037434, 329.050366)"><g><path d="M 236.453125 -220.03125 L 236.453125 0 L 184.5625 0 L 184.5625 -42.03125 L 68.3125 -42.03125 L 68.3125 0 L 16.421875 0 L 16.421875 -220.03125 Z M 68.3125 -93.921875 L 184.5625 -93.921875 L 184.5625 -168.140625 L 68.3125 -168.140625 Z M 68.3125 -93.921875 "/></g></g></g></g></g></svg>