<svg xmlns="http://www.w3.org/2000/svg" xmlns:xlink="http://www.w3.org/1999/xlink" width="1920" zoomAndPan="magnify" viewBox="0 0 1440 809.999993" height="1080" preserveAspectRatio="xMidYMid meet" version="1.0"><path fill="#1c1b1d" d="M 714.394531 27.730469 C 714.058594 27.835938 712.648438 28.210938 711.257812 28.566406 C 708.40625 29.300781 703.070312 33.75 701.472656 36.726562 C 699.976562 39.511719 698.304688 45.027344 698.296875 47.207031 C 698.289062 48.25 697.859375 50.304688 697.335938 51.765625 C 696.8125 53.226562 696.265625 55.65625 696.117188 57.160156 C 695.40625 64.488281 695.085938 66.65625 694.582031 67.601562 C 694.277344 68.167969 694.03125 69.273438 694.03125 70.0625 C 694.03125 70.847656 693.636719 73 693.15625 74.84375 C 692.675781 76.691406 692.128906 79.6875 691.941406 81.507812 C 691.753906 83.328125 691.300781 85.910156 690.9375 87.25 C 690.570312 88.585938 690.199219 90.773438 690.113281 92.109375 C 689.898438 95.433594 688.625 103.367188 688.191406 104.066406 C 688 104.382812 687.707031 106.300781 687.546875 108.335938 C 687.382812 110.371094 686.996094 112.699219 686.691406 113.511719 C 686.382812 114.320312 686.128906 115.941406 686.128906 117.113281 C 686.128906 118.28125 685.875 119.714844 685.566406 120.292969 C 685.019531 121.3125 683.867188 129.183594 683.394531 135.113281 C 683.269531 136.699219 683.023438 138.226562 682.851562 138.507812 C 682.378906 139.269531 680.75 147.59375 680.390625 151.070312 C 680.21875 152.742188 679.925781 155.886719 679.738281 158.0625 C 679.550781 160.234375 679.144531 162.96875 678.828125 164.140625 C 677.835938 167.839844 674.496094 186.136719 674.457031 188.097656 C 674.4375 189.128906 674.136719 190.519531 673.789062 191.183594 C 673.445312 191.851562 673.074219 194.3125 672.960938 196.65625 C 672.851562 198.996094 672.617188 201.871094 672.445312 203.042969 C 672.269531 204.210938 671.773438 207.628906 671.34375 210.640625 C 670.910156 213.648438 670.394531 216.519531 670.195312 217.023438 C 669.613281 218.488281 668.457031 225.988281 667.882812 232.039062 C 667.589844 235.113281 667.042969 238.808594 666.664062 240.242188 C 665.046875 246.402344 664.855469 247.34375 664.855469 249.117188 C 664.855469 250.140625 664.554688 251.75 664.191406 252.691406 C 663.25 255.121094 662.316406 261.027344 662.144531 265.648438 C 661.933594 271.308594 660.746094 279.636719 660.023438 280.503906 C 659.289062 281.390625 658.199219 288.507812 658.179688 292.535156 C 658.175781 294.121094 657.894531 296.582031 657.558594 298.007812 C 657.222656 299.433594 656.386719 303.976562 655.699219 308.101562 C 655.011719 312.230469 654.207031 316.238281 653.914062 317.007812 C 653.621094 317.777344 653.507812 318.53125 653.660156 318.679688 C 653.8125 318.832031 653.519531 320.929688 653.011719 323.34375 C 652.503906 325.753906 652.089844 328.925781 652.089844 330.386719 C 652.089844 331.847656 651.828125 333.207031 651.507812 333.40625 C 651.191406 333.601562 651.066406 334.125 651.234375 334.5625 C 651.402344 335.003906 651.035156 337.320312 650.414062 339.707031 C 649.53125 343.101562 648.636719 344.835938 646.324219 347.636719 C 644.695312 349.609375 642.523438 351.714844 641.496094 352.316406 C 640.46875 352.917969 639.269531 353.769531 638.828125 354.207031 C 638.386719 354.644531 637.699219 355.019531 637.308594 355.046875 C 636.0625 355.128906 634.402344 355.5 633.351562 355.933594 C 628.070312 358.113281 595 357.226562 598.597656 355.003906 C 599.015625 354.742188 593.789062 354.511719 586.976562 354.488281 C 577.570312 354.453125 573.0625 354.164062 568.230469 353.285156 C 563.761719 352.46875 560.148438 352.203125 556.074219 352.386719 C 552.886719 352.527344 549.730469 352.636719 549.0625 352.625 C 548.394531 352.613281 545.933594 352.984375 543.589844 353.453125 C 541.25 353.917969 537.753906 354.3125 535.824219 354.324219 C 533.84375 354.335938 531.585938 354.75 530.65625 355.273438 C 529.195312 356.09375 526.953125 356.554688 518.214844 357.832031 C 516.960938 358.015625 515.933594 358.414062 515.933594 358.710938 C 515.933594 359.011719 515.320312 359.265625 514.566406 359.273438 C 513.816406 359.285156 512.667969 359.695312 512.019531 360.1875 C 511.371094 360.675781 510.339844 361.078125 509.730469 361.078125 C 508.511719 361.078125 502.753906 363.925781 502.21875 364.792969 C 502.035156 365.089844 501.394531 365.332031 500.792969 365.332031 C 499.730469 365.332031 489.207031 370.484375 488.589844 371.308594 C 488.417969 371.539062 487.136719 372.464844 485.742188 373.371094 C 484.347656 374.273438 483.03125 375.574219 482.8125 376.261719 C 482.59375 376.945312 482.183594 377.363281 481.902344 377.191406 C 481.617188 377.015625 481.011719 377.214844 480.554688 377.636719 C 480.097656 378.058594 479.046875 378.796875 478.226562 379.28125 C 471.738281 383.085938 469.464844 384.855469 464.765625 389.765625 C 461.816406 392.839844 459.40625 395.546875 459.40625 395.773438 C 459.40625 396.003906 458.859375 396.335938 458.195312 396.507812 C 457.527344 396.683594 456.796875 397.332031 456.566406 397.945312 C 456.339844 398.5625 455.792969 399.289062 455.347656 399.554688 C 454.90625 399.824219 454.542969 400.378906 454.542969 400.796875 C 454.542969 401.210938 453.289062 402.769531 451.757812 404.261719 C 449.03125 406.917969 441.777344 415.988281 441.777344 416.742188 C 441.777344 417.097656 441.128906 417.972656 437.46875 422.546875 C 436.027344 424.347656 435.234375 425.695312 433 430.136719 C 432.140625 431.84375 430.753906 433.980469 429.921875 434.878906 C 429.089844 435.777344 428.40625 436.894531 428.40625 437.363281 C 428.40625 437.832031 428.058594 438.433594 427.632812 438.699219 C 426.503906 439.414062 425.367188 442.304688 425.367188 444.484375 C 425.367188 445.527344 425.195312 446.207031 424.988281 446 C 424.589844 445.597656 421.71875 449.484375 421.71875 450.429688 C 421.71875 450.730469 421.347656 451.195312 420.894531 451.464844 C 420.441406 451.730469 419.726562 453.003906 419.308594 454.289062 C 418.890625 455.578125 417.683594 458.175781 416.625 460.066406 C 415.570312 461.953125 413.65625 465.6875 412.367188 468.363281 C 411.082031 471.035156 409.808594 473.667969 409.539062 474.207031 C 409.269531 474.75 408.726562 476.390625 408.339844 477.855469 C 407.949219 479.320312 406.695312 482.5 405.550781 484.921875 C 404.40625 487.34375 403.539062 489.394531 403.621094 489.480469 C 403.699219 489.566406 403.292969 490.3125 402.714844 491.140625 C 402.136719 491.964844 401.660156 493.355469 401.660156 494.230469 C 401.660156 495.101562 400.742188 497.710938 399.621094 500.019531 C 397.636719 504.117188 397.101562 505.566406 395.496094 511.214844 C 395.070312 512.71875 393.960938 515.644531 393.035156 517.710938 C 392.109375 519.78125 391.066406 522.789062 390.722656 524.398438 C 390.375 526.007812 389.785156 528.007812 389.414062 528.84375 C 389.039062 529.679688 388.496094 530.910156 388.203125 531.578125 C 387.914062 532.246094 387.578125 533.613281 387.453125 534.617188 C 387.332031 535.621094 387.082031 536.851562 386.902344 537.351562 C 385.613281 540.878906 384.679688 544.28125 384.070312 547.683594 C 383.191406 552.617188 380.558594 563.535156 379.410156 567.027344 C 378.9375 568.472656 378.691406 569.890625 378.871094 570.179688 C 379.046875 570.464844 378.917969 570.867188 378.582031 571.074219 C 378.25 571.28125 377.988281 572.050781 378.003906 572.789062 C 378.019531 573.523438 377.59375 575.628906 377.0625 577.46875 C 376.007812 581.097656 374.011719 591.136719 373.371094 596.007812 C 372.554688 602.222656 370.011719 613.734375 368.8125 616.675781 C 368.535156 617.34375 368.136719 620.488281 367.921875 623.664062 C 367.703125 626.839844 367.15625 630.667969 366.703125 632.175781 C 366.246094 633.679688 365.722656 636.917969 365.535156 639.371094 C 365.347656 641.824219 365.070312 644.035156 364.917969 644.277344 C 364.769531 644.523438 364.589844 645.933594 364.519531 647.414062 C 364.453125 648.894531 364.042969 652.039062 363.609375 654.402344 C 363.175781 656.765625 362.664062 660.832031 362.472656 663.441406 C 362.28125 666.046875 361.851562 669.394531 361.519531 670.875 C 360.808594 674.054688 361.34375 702.71875 362.195312 707.121094 C 362.507812 708.726562 362.929688 711.460938 363.136719 713.199219 C 363.34375 714.9375 363.773438 716.855469 364.089844 717.464844 C 364.410156 718.070312 364.886719 719.847656 365.15625 721.414062 C 366.097656 726.953125 368.402344 734.648438 370.371094 738.851562 C 371.46875 741.191406 372.765625 744.0625 373.253906 745.230469 C 373.738281 746.402344 375.121094 748.453125 376.324219 749.789062 C 377.53125 751.128906 378.964844 753.042969 379.519531 754.046875 C 380.824219 756.417969 385.695312 760.042969 387.769531 760.1875 C 389.140625 760.28125 391.703125 758.015625 403.90625 745.925781 C 411.882812 738.023438 421.386719 728.136719 425.027344 723.957031 C 428.378906 720.101562 431.738281 716.253906 435.105469 712.410156 C 437.011719 710.234375 439.886719 706.816406 441.5 704.8125 C 443.109375 702.804688 444.605469 701.027344 444.828125 700.859375 C 445.335938 700.476562 459.902344 682.207031 461.535156 679.910156 C 464.003906 676.425781 468.757812 670.15625 469.148438 669.859375 C 469.933594 669.269531 479.464844 655.199219 479.464844 654.632812 C 479.464844 654.316406 479.6875 654.054688 479.957031 654.054688 C 480.226562 654.054688 481.640625 652.347656 483.09375 650.257812 C 487.464844 643.984375 498.308594 627.84375 498.308594 627.613281 C 498.308594 627.496094 499.4375 625.667969 500.816406 623.554688 C 506.035156 615.558594 507.390625 613.417969 512.253906 605.496094 C 518.5 595.320312 523.996094 584.902344 523.519531 584.132812 C 523.320312 583.808594 521.738281 583.546875 520.003906 583.546875 C 513.964844 583.542969 505.976562 582.265625 503.527344 580.910156 C 500.988281 579.507812 498.976562 577.207031 498.621094 575.296875 C 498.5 574.652344 498.335938 573.988281 498.253906 573.820312 C 498.175781 573.65625 498.058594 565.585938 498 555.890625 C 497.941406 546.195312 497.691406 537.371094 497.445312 536.28125 C 497.195312 535.195312 496.402344 533.988281 495.683594 533.601562 C 494.792969 533.125 488.679688 532.859375 476.734375 532.773438 C 467.039062 532.703125 458.285156 532.457031 457.285156 532.226562 C 456.289062 531.996094 454.550781 531.070312 453.429688 530.171875 C 452.304688 529.273438 450.867188 528.269531 450.230469 527.9375 C 449.59375 527.609375 449.070312 526.925781 449.070312 526.417969 C 449.070312 525.914062 448.5 524.566406 447.804688 523.429688 C 446.59375 521.441406 446.550781 520.683594 446.746094 504.28125 L 446.945312 487.207031 L 448.621094 484.628906 C 449.542969 483.210938 451.414062 481.3125 452.777344 480.40625 L 455.261719 478.765625 L 474.503906 478.730469 C 495.753906 478.691406 495.40625 478.75 497.570312 474.777344 C 498.671875 472.75 498.734375 471.519531 498.519531 454.988281 C 498.296875 438.027344 498.335938 437.285156 499.542969 435.320312 C 500.234375 434.199219 501.332031 433.140625 501.984375 432.972656 C 502.636719 432.800781 503.171875 432.40625 503.171875 432.089844 C 503.171875 431.773438 503.488281 431.710938 503.871094 431.949219 C 504.28125 432.203125 504.410156 432.117188 504.179688 431.75 C 503.539062 430.710938 506.398438 429.175781 507.65625 429.882812 C 508.25 430.214844 508.894531 430.320312 509.09375 430.125 C 509.289062 429.925781 509.132812 429.765625 508.742188 429.765625 C 507.148438 429.765625 508.1875 428.179688 510.3125 427.363281 C 513.359375 426.195312 531.816406 426.046875 532.195312 427.1875 C 532.382812 427.742188 531.1875 427.957031 527.6875 428 C 519.171875 428.109375 519.355469 429.03125 527.902344 429.097656 C 532.660156 429.132812 536.074219 428.910156 536.296875 428.550781 C 536.875 427.617188 540.003906 427.828125 540.855469 428.851562 C 541.273438 429.355469 541.988281 429.765625 542.449219 429.765625 C 542.910156 429.765625 543.289062 430.007812 543.289062 430.308594 C 543.289062 430.882812 546.164062 431.859375 547.316406 431.679688 C 547.691406 431.617188 548.445312 432.25 548.988281 433.078125 C 549.820312 434.347656 549.882812 435.234375 549.378906 438.710938 C 548.648438 443.746094 548.640625 470.929688 549.367188 472.617188 C 549.75 473.511719 549.898438 472.984375 549.929688 470.640625 C 549.953125 468.886719 550.246094 467.449219 550.582031 467.449219 C 550.917969 467.449219 551.191406 468.960938 551.191406 470.804688 C 551.191406 473.769531 551.429688 474.414062 553.261719 476.414062 L 555.332031 478.675781 L 575.089844 478.734375 C 596.675781 478.792969 596.085938 478.703125 599.617188 482.515625 C 603.628906 486.839844 605.292969 494.984375 605.050781 509.085938 C 604.953125 514.769531 604.996094 519.761719 605.144531 520.179688 C 605.320312 520.671875 606.695312 520.941406 609.0625 520.941406 C 615.386719 520.941406 628.167969 516.042969 634.050781 511.367188 C 635 510.613281 636.101562 510 636.503906 510 C 636.902344 510 637.648438 509.519531 638.160156 508.933594 C 638.671875 508.351562 639.886719 507.324219 640.863281 506.65625 C 644.679688 504.042969 654.773438 492.917969 656.875 489.007812 C 657.589844 487.683594 659.246094 485.09375 660.554688 483.253906 C 662.707031 480.230469 668.503906 469.296875 668.503906 468.257812 C 668.503906 468.027344 669.027344 466.722656 669.671875 465.363281 C 670.3125 464.003906 671.113281 461.933594 671.445312 460.765625 C 672.25 457.933594 673.589844 454.109375 675.386719 449.519531 C 677.621094 443.800781 680.660156 432.136719 680.660156 429.269531 C 680.660156 428.339844 680.882812 427.316406 681.15625 427 C 681.433594 426.683594 682.132812 423.6875 682.714844 420.34375 C 683.296875 417 684.042969 413.394531 684.367188 412.328125 C 684.996094 410.285156 685.921875 405.554688 686.785156 399.980469 C 687.070312 398.140625 687.691406 394.449219 688.171875 391.773438 C 688.648438 389.101562 689.5 383.902344 690.058594 380.226562 C 690.621094 376.546875 691.335938 372.699219 691.644531 371.671875 C 691.953125 370.648438 692.207031 368.816406 692.207031 367.609375 C 692.207031 366.402344 692.488281 364.675781 692.832031 363.773438 C 693.175781 362.871094 693.59375 361.027344 693.761719 359.679688 C 693.933594 358.328125 694.328125 356.109375 694.644531 354.746094 C 694.960938 353.382812 695.222656 350.980469 695.230469 349.414062 C 695.238281 347.847656 695.519531 346.394531 695.855469 346.1875 C 696.1875 345.980469 696.460938 344.339844 696.460938 342.539062 C 696.460938 340.742188 696.714844 339.113281 697.023438 338.921875 C 697.332031 338.730469 697.773438 336.796875 698.007812 334.625 C 698.238281 332.449219 698.671875 330.519531 698.964844 330.339844 C 699.261719 330.15625 699.5 328.773438 699.5 327.269531 C 699.5 325.761719 699.761719 324.039062 700.082031 323.445312 C 700.402344 322.847656 700.824219 320.882812 701.019531 319.078125 C 701.46875 314.960938 701.882812 313.5625 702.527344 313.964844 C 702.804688 314.136719 702.882812 313.15625 702.699219 311.789062 C 702.351562 309.191406 703.089844 303.910156 705.628906 290.875 C 706.492188 286.429688 707.164062 282.460938 707.964844 277.050781 C 708.296875 274.796875 708.816406 272.472656 709.121094 271.882812 C 709.421875 271.296875 709.710938 269.382812 709.761719 267.636719 C 709.8125 265.886719 710.125 263.75 710.453125 262.886719 C 710.78125 262.019531 711.050781 259.980469 711.050781 258.351562 C 711.050781 256.722656 711.324219 255.21875 711.660156 255.011719 C 711.992188 254.804688 712.265625 253.429688 712.265625 251.957031 C 712.265625 250.484375 712.648438 248.109375 713.121094 246.675781 C 713.585938 245.242188 714.136719 242.566406 714.335938 240.726562 C 715.148438 233.230469 715.664062 230.042969 716.207031 229.179688 C 716.855469 228.148438 717.492188 224.519531 718.339844 217.023438 C 719.140625 209.933594 719.75 207.601562 720.800781 207.59375 C 721.300781 207.589844 721.851562 208.386719 722.0625 209.417969 C 722.4375 211.226562 722.441406 211.222656 722.519531 209.042969 C 722.5625 207.832031 722.207031 205.730469 721.726562 204.371094 C 720.613281 201.214844 721.140625 196.367188 722.507812 197.210938 C 722.746094 197.355469 722.949219 195.652344 722.964844 193.421875 C 723 187.898438 724.222656 180.566406 725.308594 179.367188 C 725.800781 178.820312 726.050781 177.8125 725.867188 177.105469 C 725.398438 175.316406 726.730469 162.808594 727.464844 162.070312 C 727.796875 161.738281 728.074219 160.632812 728.078125 159.613281 C 728.09375 157.078125 729.546875 152.402344 730.410156 152.113281 C 730.800781 151.984375 730.960938 151.628906 730.773438 151.324219 C 730.585938 151.019531 730.71875 150.769531 731.074219 150.769531 C 731.425781 150.769531 731.71875 150.457031 731.71875 150.074219 C 731.71875 149.226562 733.546875 147.773438 734.648438 147.746094 C 735.089844 147.738281 735.863281 147.316406 736.363281 146.816406 C 737.351562 145.828125 740.066406 146.132812 741.136719 147.351562 C 741.472656 147.730469 742.363281 147.953125 743.113281 147.84375 C 743.867188 147.734375 744.480469 147.9375 744.480469 148.292969 C 744.480469 148.652344 744.859375 148.945312 745.320312 148.945312 C 745.78125 148.945312 746.507812 149.367188 746.9375 149.882812 C 747.363281 150.402344 748.0625 150.691406 748.484375 150.527344 C 748.910156 150.367188 749.570312 150.609375 749.953125 151.070312 C 750.335938 151.535156 751.039062 151.761719 751.515625 151.578125 C 752.046875 151.375 752.382812 151.625 752.382812 152.222656 C 752.382812 152.785156 752.886719 153.199219 753.566406 153.199219 C 754.410156 153.199219 754.679688 153.535156 754.515625 154.394531 C 754.3125 155.445312 754.433594 155.5 755.480469 154.851562 C 756.355469 154.308594 756.792969 154.292969 757.113281 154.792969 C 757.351562 155.171875 758.570312 156.019531 759.8125 156.683594 C 761.058594 157.347656 761.878906 158.09375 761.636719 158.335938 C 761.394531 158.582031 762.03125 158.65625 763.046875 158.496094 C 764.363281 158.289062 765.757812 158.71875 767.910156 159.984375 C 769.566406 160.964844 771.34375 161.902344 771.855469 162.074219 C 772.367188 162.246094 773.140625 163.195312 773.578125 164.175781 C 774.195312 165.570312 774.761719 165.964844 776.160156 165.964844 C 777.792969 165.964844 777.894531 166.078125 777.273438 167.238281 C 776.667969 168.367188 776.730469 168.464844 777.824219 168.121094 C 778.703125 167.839844 779.246094 168.089844 779.730469 168.992188 C 780.101562 169.683594 780.675781 170.085938 781.003906 169.882812 C 781.332031 169.679688 782.585938 170.097656 783.792969 170.808594 C 785.003906 171.523438 786.359375 171.964844 786.808594 171.792969 C 787.257812 171.617188 787.558594 171.808594 787.480469 172.214844 C 787.398438 172.621094 787.878906 172.953125 788.542969 172.953125 C 789.207031 172.957031 789.832031 173.394531 789.9375 173.929688 C 790.070312 174.625 790.578125 174.816406 791.707031 174.601562 C 792.796875 174.390625 793.15625 174.515625 792.859375 174.992188 C 792.589844 175.429688 792.902344 175.6875 793.707031 175.6875 C 794.410156 175.6875 795.605469 176.304688 796.355469 177.058594 C 798.574219 179.277344 800.878906 180.566406 801.914062 180.167969 C 802.445312 179.964844 803.382812 180.25 803.996094 180.808594 C 804.609375 181.363281 805.425781 181.738281 805.804688 181.640625 C 806.8125 181.382812 812.4375 185.53125 812.769531 186.78125 C 812.925781 187.367188 813.625 187.847656 814.324219 187.847656 C 815.027344 187.847656 815.597656 188.125 815.597656 188.464844 C 815.597656 188.824219 816.246094 188.921875 817.140625 188.699219 C 818.257812 188.417969 818.636719 188.535156 818.507812 189.128906 C 818.414062 189.582031 818.941406 190.035156 819.703125 190.152344 C 820.453125 190.269531 821.070312 190.617188 821.070312 190.925781 C 821.070312 191.238281 821.617188 191.492188 822.285156 191.492188 C 822.953125 191.492188 823.5 191.765625 823.5 192.101562 C 823.5 192.433594 824.03125 192.707031 824.679688 192.707031 C 825.328125 192.707031 826.027344 192.980469 826.234375 193.316406 C 826.441406 193.652344 827.285156 193.925781 828.105469 193.925781 C 829.539062 193.925781 831.488281 194.773438 832.976562 196.050781 C 834.484375 197.34375 836.15625 198.351562 836.582031 198.21875 C 836.828125 198.140625 837.535156 198.855469 838.15625 199.800781 C 838.960938 201.023438 839.699219 201.46875 840.714844 201.339844 C 841.5 201.238281 842.496094 201.582031 842.925781 202.097656 C 843.355469 202.617188 844.085938 203.042969 844.546875 203.042969 C 845.003906 203.042969 845.382812 203.453125 845.382812 203.953125 C 845.382812 204.453125 845.734375 204.863281 846.164062 204.863281 C 847.445312 204.863281 855.300781 213.625 855.4375 215.199219 C 855.449219 215.367188 855.964844 216.972656 856.574219 218.773438 C 857.4375 221.300781 857.605469 223.019531 857.316406 226.371094 C 856.597656 234.714844 856.167969 237.714844 855.640625 238.039062 C 855.347656 238.21875 855.113281 238.832031 855.117188 239.394531 C 855.136719 241.390625 851.335938 256.921875 849.144531 263.824219 C 847.921875 267.667969 846.902344 270.953125 846.875 271.121094 C 846.847656 271.285156 846.367188 272.480469 845.800781 273.777344 C 845.238281 275.070312 844.773438 276.222656 844.773438 276.332031 C 844.773438 276.445312 843.921875 277.984375 842.875 279.753906 C 841.832031 281.523438 840.851562 283.792969 840.703125 284.796875 C 840.320312 287.332031 832.652344 302.460938 830.109375 305.695312 C 829.484375 306.492188 828.972656 307.40625 828.972656 307.726562 C 828.972656 308.046875 828.398438 309.035156 827.703125 309.925781 C 823.53125 315.238281 820.457031 320.046875 821.097656 320.261719 C 821.492188 320.394531 821.996094 320.214844 822.210938 319.863281 C 822.429688 319.511719 823.695312 319.09375 825.027344 318.925781 C 828.214844 318.535156 833.535156 316.765625 836.570312 315.09375 C 837.90625 314.355469 841.050781 312.726562 843.558594 311.472656 C 848.542969 308.976562 854.710938 305.226562 856.636719 303.511719 C 857.3125 302.914062 858.953125 301.507812 860.285156 300.394531 C 863.800781 297.445312 875.820312 285.542969 877.597656 283.25 C 878.628906 281.929688 879.683594 280.628906 880.757812 279.347656 C 882.976562 276.730469 889.148438 268.101562 889.148438 267.621094 C 889.148438 267.410156 889.785156 266.535156 890.570312 265.683594 C 891.351562 264.828125 892.355469 263.171875 892.796875 262 C 893.238281 260.832031 893.9375 259.464844 894.347656 258.960938 C 894.757812 258.460938 895.695312 256.546875 896.4375 254.707031 C 897.175781 252.867188 898.015625 250.816406 898.304688 250.148438 C 900.621094 244.746094 903.128906 237.851562 903.128906 236.882812 C 903.128906 235.53125 905.894531 226.582031 907.015625 224.308594 C 907.429688 223.46875 907.839844 221.011719 907.925781 218.84375 C 908.015625 216.671875 908.40625 214.703125 908.796875 214.453125 C 909.328125 214.117188 909.3125 214 908.75 213.992188 C 908.332031 213.988281 907.988281 213.679688 907.988281 213.308594 C 907.988281 212.941406 908.398438 212.792969 908.902344 212.988281 C 909.527344 213.226562 909.8125 212.949219 909.8125 212.105469 C 909.8125 211.425781 909.566406 211.023438 909.265625 211.210938 C 908.949219 211.40625 908.714844 208.226562 908.714844 203.722656 C 908.714844 186.4375 906.558594 173.875 901.847656 163.683594 C 900.878906 161.59375 900.089844 159.527344 900.089844 159.09375 C 900.089844 158.660156 899.832031 158.042969 899.519531 157.726562 C 899.210938 157.410156 897.90625 155.09375 896.621094 152.578125 C 894.289062 148.003906 888.625 139.828125 887.792969 139.828125 C 887.546875 139.828125 886.757812 138.664062 886.03125 137.242188 C 885.308594 135.824219 883.558594 133.566406 882.140625 132.230469 C 876.453125 126.863281 870.820312 121.878906 870.117188 121.589844 C 868.996094 121.132812 862.230469 116.015625 861.1875 114.835938 C 860.683594 114.269531 858.90625 113.070312 857.234375 112.171875 C 855.5625 111.273438 853.511719 109.941406 852.675781 109.214844 C 850.757812 107.542969 847.371094 105.179688 846.890625 105.179688 C 846.691406 105.179688 845.511719 104.363281 844.269531 103.363281 C 843.027344 102.367188 839.335938 100.171875 836.070312 98.488281 C 830.113281 95.417969 819.527344 88.722656 816.964844 86.402344 C 816.214844 85.722656 815.597656 85.332031 815.597656 85.542969 C 815.597656 85.75 815.121094 85.519531 814.535156 85.039062 C 813.949219 84.554688 812.652344 83.761719 811.648438 83.277344 C 810.644531 82.792969 808.402344 81.503906 806.664062 80.414062 C 804.921875 79.324219 803.214844 78.433594 802.863281 78.433594 C 802.511719 78.433594 802.226562 78.160156 802.226562 77.828125 C 802.226562 77.492188 801.953125 77.21875 801.621094 77.21875 C 801.285156 77.21875 799.679688 76.261719 798.050781 75.09375 C 796.421875 73.921875 794.945312 72.964844 794.769531 72.964844 C 794.589844 72.964844 792.984375 71.976562 791.195312 70.769531 C 789.40625 69.5625 787.394531 68.328125 786.726562 68.027344 C 786.058594 67.726562 784.417969 66.800781 783.078125 65.96875 C 781.742188 65.140625 778.871094 63.441406 776.695312 62.199219 C 774.523438 60.953125 771.117188 58.628906 769.128906 57.027344 C 767.140625 55.429688 765.15625 54.121094 764.722656 54.121094 C 764.289062 54.121094 763.933594 53.847656 763.933594 53.515625 C 763.933594 53.179688 763.554688 52.90625 763.09375 52.90625 C 762.632812 52.90625 761.933594 52.515625 761.539062 52.039062 C 761.144531 51.5625 759.8125 50.652344 758.578125 50.015625 C 753.160156 47.210938 750.851562 45.882812 750.660156 45.460938 C 750.550781 45.207031 750.191406 45.003906 749.859375 45.003906 C 749.53125 45.003906 748.367188 44.320312 747.269531 43.484375 C 746.175781 42.648438 745.003906 41.964844 744.671875 41.964844 C 744.335938 41.964844 743.542969 41.386719 742.90625 40.679688 C 742.265625 39.972656 741.199219 39.152344 740.53125 38.859375 C 738.9375 38.15625 737.691406 37.363281 732.933594 34.035156 C 728.109375 30.664062 724.976562 29.148438 721.382812 28.441406 C 717.957031 27.773438 715.183594 27.488281 714.394531 27.730469 M 693.773438 47.617188 C 693.5 48.550781 693.445312 49.484375 693.65625 49.691406 C 694.335938 50.371094 694.734375 49.402344 694.5 47.644531 L 694.269531 45.914062 Z M 691.132812 65.0625 C 691.132812 66.234375 691.257812 66.710938 691.410156 66.125 C 691.5625 65.542969 691.5625 64.582031 691.410156 64 C 691.257812 63.414062 691.132812 63.890625 691.132812 65.0625 M 689.175781 74.332031 C 689.183594 75.4375 689.300781 75.523438 689.777344 74.789062 C 690.539062 73.609375 690.539062 72.964844 689.777344 72.964844 C 689.441406 72.964844 689.171875 73.578125 689.175781 74.332031 M 688.117188 82.691406 C 688.117188 84.195312 688.238281 84.808594 688.382812 84.058594 C 688.527344 83.304688 688.527344 82.074219 688.382812 81.320312 C 688.238281 80.570312 688.117188 81.183594 688.117188 82.691406 M 686.890625 91.503906 C 686.898438 92.839844 687.019531 93.316406 687.167969 92.558594 C 687.3125 91.804688 687.304688 90.710938 687.15625 90.128906 C 687.003906 89.546875 686.882812 90.164062 686.890625 91.503906 M 684.914062 100.621094 C 684.914062 101.457031 685.1875 102.140625 685.519531 102.140625 C 685.855469 102.140625 686.128906 101.457031 686.128906 100.621094 C 686.128906 99.785156 685.855469 99.101562 685.519531 99.101562 C 685.1875 99.101562 684.914062 99.785156 684.914062 100.621094 M 683.839844 108.828125 C 683.839844 109.996094 683.964844 110.476562 684.117188 109.890625 C 684.269531 109.304688 684.269531 108.347656 684.117188 107.761719 C 683.964844 107.179688 683.839844 107.65625 683.839844 108.828125 M 866.65625 115.34375 C 866.65625 116.109375 868.394531 117.625 868.800781 117.214844 C 868.964844 117.054688 868.546875 116.425781 867.875 115.820312 C 867.207031 115.214844 866.65625 115 866.65625 115.34375 M 874.226562 121.472656 C 875.546875 122.875 876.703125 124.023438 876.789062 124.023438 C 877.410156 124.023438 875.90625 122.207031 874.050781 120.714844 L 871.824219 118.925781 Z M 680.660156 126.113281 C 680.660156 127.976562 681.003906 128.128906 681.441406 126.453125 C 681.617188 125.785156 681.511719 125.085938 681.210938 124.898438 C 680.90625 124.710938 680.660156 125.257812 680.660156 126.113281 M 679.453125 133.9375 C 679.445312 135.328125 679.683594 136.101562 680.050781 135.875 C 680.820312 135.402344 680.820312 133.722656 680.050781 132.53125 C 679.613281 131.855469 679.460938 132.214844 679.453125 133.9375 M 676.414062 151.527344 C 676.40625 152.445312 676.675781 153.199219 677.011719 153.199219 C 677.78125 153.199219 677.78125 151.957031 677.011719 150.765625 C 676.550781 150.058594 676.421875 150.222656 676.414062 151.527344 M 730.65625 157.148438 C 730.660156 158.488281 730.785156 158.960938 730.929688 158.207031 C 731.078125 157.449219 731.070312 156.355469 730.917969 155.773438 C 730.765625 155.195312 730.648438 155.8125 730.65625 157.148438 M 675.351562 161.101562 C 675.351562 162.605469 675.472656 163.21875 675.617188 162.46875 C 675.761719 161.714844 675.761719 160.484375 675.617188 159.734375 C 675.472656 158.980469 675.351562 159.597656 675.351562 161.101562 M 728.886719 165.8125 C 729.476562 167.722656 729.621094 167.863281 729.789062 166.679688 C 730.027344 164.996094 729.546875 163.53125 728.753906 163.53125 C 728.421875 163.53125 728.476562 164.488281 728.886719 165.8125 M 674.125 169.914062 C 674.132812 171.25 674.257812 171.726562 674.402344 170.96875 C 674.546875 170.214844 674.542969 169.121094 674.390625 168.539062 C 674.238281 167.957031 674.117188 168.578125 674.125 169.914062 M 906.773438 170.253906 C 906.773438 170.941406 907.046875 171.335938 907.382812 171.128906 C 907.714844 170.921875 907.988281 170.359375 907.988281 169.878906 C 907.988281 169.394531 907.714844 169.003906 907.382812 169.003906 C 907.046875 169.003906 906.773438 169.566406 906.773438 170.253906 M 727.460938 174.167969 C 727.460938 175.003906 727.734375 175.6875 728.070312 175.6875 C 728.402344 175.6875 728.675781 175.003906 728.675781 174.167969 C 728.675781 173.332031 728.402344 172.648438 728.070312 172.648438 C 727.734375 172.648438 727.460938 173.332031 727.460938 174.167969 M 726.421875 182.070312 C 726.425781 183.742188 726.542969 184.355469 726.683594 183.429688 C 726.824219 182.507812 726.816406 181.136719 726.675781 180.390625 C 726.53125 179.644531 726.414062 180.398438 726.421875 182.070312 M 909.820312 182.792969 C 909.828125 183.734375 910.097656 184.914062 910.421875 185.414062 C 910.859375 186.09375 911.011719 185.753906 911.019531 184.082031 C 911.023438 182.847656 910.753906 181.667969 910.421875 181.464844 C 910.070312 181.246094 909.816406 181.808594 909.820312 182.792969 M 671.085938 186.933594 C 671.09375 188.269531 671.21875 188.746094 671.363281 187.988281 C 671.507812 187.234375 671.503906 186.140625 671.351562 185.558594 C 671.199219 184.976562 671.078125 185.597656 671.085938 186.933594 M 724.828125 190.074219 C 724.199219 190.703125 724.351562 193.808594 725.03125 194.226562 C 725.398438 194.453125 725.636719 193.625 725.636719 192.136719 C 725.636719 189.617188 725.539062 189.363281 724.828125 190.074219 M 669.589844 195.746094 C 669.441406 196.75 669.546875 197.570312 669.824219 197.570312 C 670.097656 197.570312 670.324219 196.75 670.324219 195.746094 C 670.324219 194.746094 670.21875 193.921875 670.089844 193.921875 C 669.960938 193.921875 669.734375 194.746094 669.589844 195.746094 M 723.207031 200.34375 C 723.207031 201.628906 723.453125 202.351562 723.816406 202.128906 C 724.148438 201.921875 724.421875 200.949219 724.421875 199.964844 C 724.421875 198.984375 724.148438 198.179688 723.816406 198.179688 C 723.480469 198.179688 723.207031 199.152344 723.207031 200.34375 M 668.351562 202.78125 C 668.097656 203.035156 667.910156 204.359375 667.933594 205.726562 C 667.96875 207.976562 668.027344 208.066406 668.566406 206.710938 C 669.230469 205.050781 669.066406 202.054688 668.351562 202.78125 M 666.820312 212.765625 C 666.820312 213.9375 666.945312 214.414062 667.097656 213.832031 C 667.25 213.246094 667.25 212.289062 667.097656 211.703125 C 666.945312 211.117188 666.820312 211.597656 666.820312 212.765625 M 720.574219 214.386719 C 719.929688 215.035156 720.105469 219.453125 720.777344 219.453125 C 721.109375 219.453125 721.382812 218.222656 721.382812 216.71875 C 721.382812 213.933594 721.292969 213.667969 720.574219 214.386719 M 910.191406 215.652344 C 910.761719 218.039062 911.027344 218.121094 911.027344 215.90625 C 911.027344 214.847656 910.75 213.980469 910.410156 213.980469 C 910.042969 213.980469 909.953125 214.660156 910.191406 215.652344 M 851.890625 216.40625 C 852.0625 217.070312 852.4375 217.472656 852.71875 217.300781 C 853.316406 216.929688 852.773438 215.199219 852.0625 215.199219 C 851.792969 215.199219 851.714844 215.742188 851.890625 216.40625 M 665.144531 221.945312 C 664.902344 223.0625 665.003906 224.101562 665.402344 224.496094 C 665.886719 224.984375 666.070312 224.472656 666.070312 222.613281 C 666.070312 219.589844 665.71875 219.335938 665.144531 221.945312 M 853.285156 224.851562 C 853.285156 227.191406 853.558594 229.277344 853.890625 229.480469 C 854.273438 229.71875 854.5 228.285156 854.5 225.601562 C 854.5 223.261719 854.226562 221.179688 853.890625 220.972656 C 853.507812 220.734375 853.285156 222.171875 853.285156 224.851562 M 718.953125 223.976562 C 718.953125 224.792969 719.226562 225.628906 719.558594 225.835938 C 719.914062 226.054688 720.167969 225.4375 720.167969 224.351562 C 720.167969 223.328125 719.894531 222.492188 719.558594 222.492188 C 719.226562 222.492188 718.953125 223.160156 718.953125 223.976562 M 908.738281 224.316406 C 908.738281 225.484375 908.863281 225.964844 909.015625 225.378906 C 909.167969 224.792969 909.167969 223.835938 909.015625 223.25 C 908.863281 222.667969 908.738281 223.144531 908.738281 224.316406 M 663.648438 231.152344 C 663.644531 232.40625 663.914062 233.433594 664.246094 233.433594 C 665.019531 233.433594 665.019531 230.984375 664.246094 229.785156 C 663.808594 229.109375 663.65625 229.457031 663.648438 231.152344 M 906.78125 230.242188 C 906.789062 230.828125 907.058594 231.714844 907.382812 232.21875 C 907.828125 232.910156 907.972656 232.652344 907.980469 231.152344 C 907.984375 230.066406 907.714844 229.179688 907.382812 229.179688 C 907.046875 229.179688 906.777344 229.65625 906.78125 230.242188 M 717.902344 232.824219 C 717.902344 234.328125 718.019531 234.945312 718.164062 234.191406 C 718.308594 233.441406 718.308594 232.210938 718.164062 231.457031 C 718.019531 230.707031 717.902344 231.320312 717.902344 232.824219 M 852.210938 235.863281 C 852.210938 237.035156 852.335938 237.511719 852.488281 236.929688 C 852.640625 236.34375 852.640625 235.386719 852.488281 234.800781 C 852.335938 234.214844 852.210938 234.695312 852.210938 235.863281 M 905.558594 236.507812 C 905.558594 237.195312 905.832031 237.589844 906.167969 237.382812 C 906.5 237.175781 906.773438 236.613281 906.773438 236.132812 C 906.773438 235.652344 906.5 235.257812 906.167969 235.257812 C 905.832031 235.257812 905.558594 235.820312 905.558594 236.507812 M 662.566406 240.121094 C 662.566406 241.289062 662.691406 241.769531 662.84375 241.183594 C 662.996094 240.597656 662.996094 239.640625 662.84375 239.054688 C 662.691406 238.472656 662.566406 238.949219 662.566406 240.121094 M 715.644531 240.511719 C 716.261719 243.988281 717.242188 244.609375 717.015625 241.382812 C 716.90625 239.84375 716.484375 238.582031 716.027344 238.429688 C 715.414062 238.230469 715.324219 238.714844 715.644531 240.511719 M 850.246094 243.730469 C 850.246094 244.417969 850.519531 244.980469 850.851562 244.980469 C 851.1875 244.980469 851.460938 244.589844 851.460938 244.105469 C 851.460938 243.625 851.1875 243.0625 850.851562 242.855469 C 850.519531 242.648438 850.246094 243.042969 850.246094 243.730469 M 661.019531 248.246094 C 660.757812 249.203125 660.691406 250.136719 660.875 250.320312 C 661.507812 250.957031 661.90625 249.949219 661.703125 248.230469 L 661.496094 246.5 Z M 714.699219 249.539062 C 714.699219 250.375 714.972656 251.058594 715.304688 251.058594 C 715.640625 251.058594 715.914062 250.375 715.914062 249.539062 C 715.914062 248.703125 715.640625 248.019531 715.304688 248.019531 C 714.972656 248.019531 714.699219 248.703125 714.699219 249.539062 M 901.304688 248.953125 C 901.304688 249.46875 900.878906 250.535156 900.359375 251.328125 C 899.730469 252.289062 899.628906 252.902344 900.054688 253.167969 C 900.414062 253.386719 900.703125 253.078125 900.714844 252.464844 C 900.726562 251.859375 901.136719 250.832031 901.625 250.183594 C 902.667969 248.808594 902.769531 248.019531 901.910156 248.019531 C 901.578125 248.019531 901.304688 248.441406 901.304688 248.953125 M 659.382812 257.746094 C 659.382812 258.75 659.65625 259.570312 659.992188 259.570312 C 660.328125 259.570312 660.601562 259.144531 660.601562 258.621094 C 660.601562 258.101562 660.875 257.84375 661.207031 258.050781 C 661.542969 258.257812 661.816406 258.03125 661.816406 257.542969 C 661.816406 256.808594 660.625 255.921875 659.636719 255.921875 C 659.5 255.921875 659.382812 256.742188 659.382812 257.746094 M 713.207031 257.660156 C 713.007812 258.277344 713.109375 259.441406 713.429688 260.242188 C 713.941406 261.523438 714.015625 261.386719 714.050781 259.113281 C 714.09375 256.355469 713.785156 255.828125 713.207031 257.660156 M 711.433594 264.300781 C 710.878906 265.199219 711.496094 268.515625 712.3125 269.019531 C 712.949219 269.414062 712.960938 267.304688 712.332031 265.046875 C 712.039062 263.992188 711.765625 263.765625 711.433594 264.300781 M 889.449219 271.726562 C 888.839844 272.398438 888.480469 273.085938 888.648438 273.253906 C 888.816406 273.421875 889.449219 273.007812 890.058594 272.335938 C 890.667969 271.660156 891.027344 270.976562 890.863281 270.808594 C 890.695312 270.640625 890.058594 271.054688 889.449219 271.726562 M 710.21875 275.085938 C 710.71875 278.90625 710.871094 279.066406 711.394531 276.292969 C 711.707031 274.613281 711.566406 273.804688 710.816406 273.054688 C 709.894531 272.132812 709.847656 272.28125 710.21875 275.085938 M 656.582031 275.113281 C 656.363281 276 656.488281 276.976562 656.875 277.363281 C 657.382812 277.871094 657.5625 277.46875 657.5625 275.800781 C 657.5625 273.179688 657.140625 272.886719 656.582031 275.113281 M 886.40625 275.984375 C 885.800781 276.65625 885.488281 277.386719 885.710938 277.613281 C 886.113281 278.015625 887.875 276.105469 887.910156 275.222656 C 887.941406 274.5 887.589844 274.679688 886.40625 275.984375 M 882.785156 281.183594 C 881.863281 282.035156 881.261719 282.890625 881.453125 283.078125 C 881.792969 283.417969 882.628906 282.695312 884.207031 280.691406 C 885.417969 279.148438 884.71875 279.390625 882.785156 281.183594 M 708.96875 283.425781 C 708.703125 284.34375 708.703125 285.574219 708.964844 286.160156 C 709.382812 287.097656 709.46875 287.058594 709.679688 285.859375 C 709.8125 285.105469 709.8125 283.875 709.683594 283.125 C 709.460938 281.835938 709.417969 281.855469 708.96875 283.425781 M 655.136719 284.339844 C 655.132812 285.425781 655.402344 286.316406 655.738281 286.316406 C 656.507812 286.316406 656.507812 284.46875 655.738281 283.277344 C 655.289062 282.585938 655.144531 282.839844 655.136719 284.339844 M 871.789062 293.695312 C 869.132812 296.398438 867.507812 298.324219 868.175781 297.976562 C 869.769531 297.148438 877.316406 289.476562 876.921875 289.085938 C 876.757812 288.917969 874.445312 290.992188 871.789062 293.695312 M 653.960938 292.207031 C 653.933594 293.605469 654.128906 294.886719 654.394531 295.050781 C 654.660156 295.214844 654.777344 294.339844 654.65625 293.109375 C 654.320312 289.746094 654.015625 289.347656 653.960938 292.207031 M 707.792969 291.480469 C 707.597656 291.980469 707.691406 293.007812 707.992188 293.761719 C 708.46875 294.949219 708.546875 294.828125 708.582031 292.847656 C 708.621094 290.433594 708.363281 289.988281 707.792969 291.480469 M 706.1875 300.9375 C 706.1875 302.023438 706.441406 302.640625 706.796875 302.421875 C 707.128906 302.214844 707.402344 301.378906 707.402344 300.5625 C 707.402344 299.746094 707.128906 299.078125 706.796875 299.078125 C 706.460938 299.078125 706.1875 299.917969 706.1875 300.9375 M 652.539062 301.710938 C 651.835938 303.453125 651.960938 304.921875 652.75 304.132812 C 653.113281 303.769531 653.316406 302.828125 653.199219 302.035156 C 653.015625 300.769531 652.9375 300.730469 652.539062 301.710938 M 861.792969 302.425781 C 861.007812 303.257812 860.644531 303.941406 860.984375 303.941406 C 861.761719 303.941406 863.917969 301.609375 863.515625 301.207031 C 863.351562 301.042969 862.574219 301.589844 861.792969 302.425781 M 704.363281 309.375 C 704.363281 310.359375 704.636719 311.332031 704.972656 311.539062 C 705.332031 311.765625 705.578125 311.039062 705.578125 309.753906 C 705.578125 308.5625 705.304688 307.589844 704.972656 307.589844 C 704.636719 307.589844 704.363281 308.394531 704.363281 309.375 M 650.875 311.234375 C 650.875 312.34375 651.125 312.976562 651.484375 312.757812 C 651.816406 312.550781 652.089844 311.867188 652.089844 311.234375 C 652.089844 310.605469 651.816406 309.921875 651.484375 309.714844 C 651.125 309.496094 650.875 310.128906 650.875 311.234375 M 703.210938 315.644531 C 703.242188 316.0625 703.488281 317.085938 703.757812 317.921875 C 704.191406 319.277344 704.25 319.195312 704.304688 317.164062 C 704.335938 315.910156 704.089844 314.882812 703.757812 314.882812 C 703.421875 314.882812 703.175781 315.226562 703.210938 315.644531 M 649.800781 319.746094 C 649.800781 320.917969 649.925781 321.394531 650.078125 320.808594 C 650.230469 320.226562 650.230469 319.265625 650.078125 318.683594 C 649.925781 318.097656 649.800781 318.574219 649.800781 319.746094 M 829.273438 320.355469 C 829.066406 320.6875 829.308594 320.960938 829.8125 320.960938 C 830.3125 320.960938 830.890625 320.6875 831.097656 320.355469 C 831.304688 320.019531 831.0625 319.746094 830.5625 319.746094 C 830.0625 319.746094 829.480469 320.019531 829.273438 320.355469 M 816.8125 323.40625 C 816.8125 323.773438 817.492188 323.859375 818.484375 323.621094 C 820.871094 323.050781 820.953125 322.785156 818.738281 322.785156 C 817.679688 322.785156 816.8125 323.0625 816.8125 323.40625 M 701.996094 327.070312 L 702.058594 329.773438 L 702.699219 327.773438 C 703.167969 326.3125 703.148438 325.582031 702.636719 325.070312 C 702.105469 324.535156 701.949219 325.023438 701.996094 327.070312 M 648.242188 327.445312 C 647.609375 328.074219 647.765625 330.078125 648.441406 330.078125 C 648.777344 330.078125 649.050781 329.394531 649.050781 328.558594 C 649.050781 326.96875 648.910156 326.773438 648.242188 327.445312 M 700.117188 333.84375 C 700.125 334.613281 700.394531 335.65625 700.71875 336.15625 C 701.164062 336.851562 701.308594 336.605469 701.316406 335.128906 C 701.320312 334.0625 701.050781 333.019531 700.71875 332.816406 C 700.378906 332.605469 700.113281 333.058594 700.117188 333.84375 M 698.894531 342.539062 C 698.894531 343.710938 699.167969 344.667969 699.5 344.667969 C 699.835938 344.667969 700.109375 343.710938 700.109375 342.539062 C 700.109375 341.371094 699.835938 340.414062 699.5 340.414062 C 699.167969 340.414062 698.894531 341.371094 698.894531 342.539062 M 697.257812 348.515625 C 697.488281 349.128906 697.699219 350.359375 697.726562 351.25 L 697.773438 352.875 L 698.382812 351.207031 C 698.871094 349.871094 698.777344 349.328125 697.914062 348.472656 C 696.882812 347.453125 696.851562 347.453125 697.257812 348.515625 M 537.066406 350.566406 C 537.820312 350.710938 538.914062 350.707031 539.496094 350.554688 C 540.078125 350.402344 539.457031 350.285156 538.121094 350.289062 C 536.785156 350.296875 536.308594 350.421875 537.066406 350.566406 M 570.792969 350.582031 C 572.046875 350.710938 574.097656 350.710938 575.351562 350.582031 C 576.605469 350.449219 575.578125 350.34375 573.070312 350.34375 C 570.5625 350.34375 569.539062 350.449219 570.792969 350.582031 M 839.910156 350.734375 C 839.410156 351.066406 837 351.339844 834.554688 351.34375 C 832.109375 351.347656 829.519531 351.667969 828.796875 352.054688 C 827.507812 352.746094 822.730469 353.550781 816.207031 354.179688 C 814.367188 354.355469 812.601562 354.75 812.285156 355.054688 C 811.96875 355.359375 810.601562 355.609375 809.246094 355.613281 C 807.890625 355.613281 806 356.023438 805.042969 356.523438 C 804.085938 357.023438 802.253906 357.433594 800.976562 357.433594 C 799.699219 357.433594 798.480469 357.707031 798.273438 358.039062 C 798.070312 358.375 796.464844 358.648438 794.714844 358.648438 C 792.960938 358.648438 791.210938 358.964844 790.828125 359.347656 C 790.441406 359.734375 789.222656 360.023438 788.121094 359.992188 C 787.019531 359.957031 785.511719 360.324219 784.773438 360.808594 C 784.03125 361.292969 782.339844 361.6875 781.007812 361.6875 C 779.679688 361.6875 778.421875 361.960938 778.214844 362.292969 C 778.011719 362.628906 776.503906 362.902344 774.875 362.902344 C 773.242188 362.902344 771.738281 363.175781 771.53125 363.511719 C 771.324219 363.84375 770.417969 364.121094 769.519531 364.121094 C 768.621094 364.125 767.101562 364.535156 766.140625 365.035156 C 765.183594 365.53125 763.476562 365.941406 762.34375 365.941406 C 761.210938 365.941406 760.285156 366.214844 760.285156 366.550781 C 760.285156 366.882812 759.492188 367.15625 758.527344 367.15625 C 757.535156 367.15625 756.617188 367.550781 756.421875 368.058594 C 756.230469 368.554688 755.683594 368.808594 755.203125 368.625 C 754.722656 368.441406 754.148438 368.582031 753.929688 368.941406 C 753.707031 369.296875 752.378906 370.121094 750.980469 370.765625 C 749.578125 371.414062 746.359375 374.078125 743.824219 376.691406 C 738.761719 381.914062 736.871094 384.527344 734.445312 389.648438 C 733.890625 390.816406 733.1875 392.25 732.882812 392.828125 C 732.574219 393.410156 732.324219 394.382812 732.324219 394.992188 C 732.324219 395.601562 731.921875 396.632812 731.433594 397.28125 C 730.941406 397.929688 730.53125 399.46875 730.519531 400.703125 C 730.511719 401.9375 730.226562 403.117188 729.894531 403.324219 C 729.558594 403.53125 729.285156 404.898438 729.285156 406.363281 C 729.285156 407.828125 729.011719 409.195312 728.679688 409.402344 C 728.34375 409.609375 728.058594 410.925781 728.046875 412.324219 C 728.035156 413.726562 727.636719 415.554688 727.15625 416.390625 C 726.679688 417.226562 726.28125 419.074219 726.269531 420.496094 C 726.257812 421.917969 725.972656 423.078125 725.636719 423.078125 C 725.304688 423.078125 725.03125 424.292969 725.03125 425.777344 C 725.03125 427.261719 724.757812 428.644531 724.421875 428.851562 C 724.089844 429.058594 723.816406 430.050781 723.816406 431.054688 C 723.816406 432.0625 723.492188 433.480469 723.097656 434.210938 C 722.703125 434.941406 722.304688 436.195312 722.21875 436.996094 C 722.128906 437.796875 721.765625 438.742188 721.414062 439.09375 C 721.0625 439.445312 720.777344 440.484375 720.777344 441.398438 C 720.777344 442.316406 720.503906 443.234375 720.167969 443.441406 C 719.832031 443.648438 719.558594 444.449219 719.558594 445.226562 C 719.558594 446 719.148438 446.976562 718.648438 447.390625 C 718.148438 447.808594 717.738281 448.800781 717.738281 449.601562 C 717.738281 450.402344 717.464844 451.597656 717.128906 452.261719 L 715.914062 454.675781 C 715.578125 455.339844 715.304688 456.402344 715.304688 457.035156 C 715.304688 457.667969 714.898438 458.523438 714.398438 458.933594 C 713.902344 459.347656 713.625 459.898438 713.785156 460.15625 C 713.945312 460.414062 713.667969 460.964844 713.171875 461.378906 C 712.671875 461.789062 712.246094 462.574219 712.222656 463.117188 C 712.199219 463.664062 711.664062 464.929688 711.035156 465.929688 C 710.40625 466.933594 709.050781 469.394531 708.023438 471.402344 C 706.097656 475.15625 704.894531 477.253906 704.363281 477.785156 C 704.195312 477.949219 703.785156 478.523438 703.453125 479.058594 C 701.40625 482.335938 699.535156 484.898438 698.671875 485.617188 C 698.125 486.070312 697.679688 486.773438 697.679688 487.175781 C 697.679688 489.09375 681.503906 505.527344 676.707031 508.484375 C 675.703125 509.105469 674.601562 509.945312 674.253906 510.351562 C 673.484375 511.257812 670.222656 513.242188 667.132812 514.6875 C 665.882812 515.277344 664.855469 515.964844 664.855469 516.222656 C 664.855469 516.476562 664.476562 516.683594 664.015625 516.683594 C 663.554688 516.683594 662.839844 517.09375 662.421875 517.597656 C 662.007812 518.097656 661.152344 518.507812 660.527344 518.507812 C 659.898438 518.507812 659.382812 518.78125 659.382812 519.117188 C 659.382812 519.449219 658.699219 519.722656 657.863281 519.722656 C 657.027344 519.722656 656.34375 520 656.34375 520.332031 C 656.34375 520.667969 655.695312 520.941406 654.898438 520.941406 C 654.105469 520.941406 653.113281 521.351562 652.699219 521.851562 C 652.28125 522.351562 651.308594 522.765625 650.53125 522.765625 C 649.757812 522.765625 648.953125 523.039062 648.746094 523.371094 C 648.539062 523.707031 647.582031 523.980469 646.621094 523.980469 C 645.65625 523.980469 644.699219 524.253906 644.492188 524.585938 C 644.285156 524.921875 643.292969 525.195312 642.289062 525.195312 C 641.285156 525.195312 639.886719 525.503906 639.1875 525.878906 C 635.21875 528 630.476562 528.234375 591.15625 528.234375 C 565.726562 528.234375 552.40625 528.445312 552.40625 528.84375 C 552.40625 529.175781 552.046875 529.449219 551.609375 529.449219 C 550.640625 529.449219 548.148438 532.691406 548.148438 533.949219 C 548.148438 534.441406 547.910156 535 547.613281 535.179688 C 547.316406 535.363281 547.195312 538.867188 547.339844 542.96875 C 547.488281 547.066406 547.425781 555.933594 547.207031 562.671875 L 546.804688 574.925781 L 544.492188 577.410156 L 542.175781 579.890625 L 535.660156 580.457031 C 531.710938 580.796875 528.835938 581.339844 528.371094 581.828125 C 527.945312 582.273438 526.023438 585.507812 524.097656 589.019531 C 512.96875 609.300781 494.09375 638.707031 476.5 663.175781 C 453.785156 694.757812 422.425781 731.453125 397.65625 755.433594 C 392.058594 760.855469 387.371094 765.289062 387.238281 765.289062 C 387.105469 765.289062 384.625 762.984375 381.722656 760.167969 C 378.824219 757.351562 376.324219 755.171875 376.171875 755.324219 C 375.730469 755.765625 384.679688 764.582031 387.574219 766.554688 C 389.019531 767.542969 390.457031 768.191406 390.769531 767.996094 C 391.082031 767.804688 391.5 768.074219 391.703125 768.59375 C 391.902344 769.117188 392.566406 769.546875 393.179688 769.546875 C 393.792969 769.546875 394.464844 769.820312 394.671875 770.152344 C 394.878906 770.488281 395.542969 770.761719 396.152344 770.761719 C 396.761719 770.761719 397.597656 771.171875 398.015625 771.671875 C 398.429688 772.175781 399.40625 772.585938 400.179688 772.585938 C 400.957031 772.585938 401.757812 772.859375 401.964844 773.191406 C 402.171875 773.527344 403.226562 773.800781 404.3125 773.800781 C 405.394531 773.800781 406.621094 774.144531 407.039062 774.558594 C 408.226562 775.746094 428.128906 775.851562 430.46875 774.683594 C 431.441406 774.199219 433.003906 773.800781 433.933594 773.800781 C 434.867188 773.800781 435.796875 773.527344 436.003906 773.191406 C 436.210938 772.859375 437.003906 772.585938 437.769531 772.585938 C 439.023438 772.585938 441.476562 771.664062 444.355469 770.113281 C 444.933594 769.800781 445.960938 769.546875 446.632812 769.546875 C 447.304688 769.546875 447.855469 769.273438 447.855469 768.9375 C 447.855469 768.601562 448.273438 768.328125 448.78125 768.328125 C 449.289062 768.328125 450.789062 767.644531 452.113281 766.808594 C 453.4375 765.972656 454.765625 765.289062 455.066406 765.289062 C 455.363281 765.289062 455.949219 764.882812 456.363281 764.386719 C 456.773438 763.886719 457.304688 763.601562 457.539062 763.746094 C 457.777344 763.890625 458.691406 763.339844 459.574219 762.523438 C 460.453125 761.707031 461.574219 761.035156 462.0625 761.035156 C 462.550781 761.035156 463.042969 760.8125 463.15625 760.542969 C 463.265625 760.269531 464.863281 758.921875 466.699219 757.546875 C 468.851562 755.925781 470.980469 754.273438 473.082031 752.585938 C 475.109375 750.949219 477.152344 749.335938 479.210938 747.734375 C 480.910156 746.421875 483.644531 744.054688 485.289062 742.472656 C 486.933594 740.894531 489.234375 738.902344 490.40625 738.042969 C 491.574219 737.1875 495.542969 733.597656 499.21875 730.070312 C 502.898438 726.542969 506.726562 723.039062 507.730469 722.289062 C 508.730469 721.535156 512.5625 717.953125 516.238281 714.324219 C 519.917969 710.695312 524.976562 705.996094 527.484375 703.886719 C 529.992188 701.777344 534.804688 697.429688 538.183594 694.226562 C 549.472656 683.515625 557.964844 675.742188 560.210938 674.0625 C 561.433594 673.144531 564.074219 670.835938 566.082031 668.929688 C 568.085938 667.023438 570.824219 664.691406 572.160156 663.742188 C 573.496094 662.792969 575.664062 660.910156 576.976562 659.558594 C 578.289062 658.203125 579.671875 657.097656 580.050781 657.097656 C 580.425781 657.097656 581.664062 656.136719 582.796875 654.96875 C 583.929688 653.796875 585.175781 652.839844 585.5625 652.839844 C 585.949219 652.839844 587.039062 652.121094 587.988281 651.246094 C 590.519531 648.898438 598.613281 644.332031 600.238281 644.332031 C 600.675781 644.332031 601.03125 644.078125 601.03125 643.769531 C 601.03125 643.046875 604.523438 641.292969 605.953125 641.292969 C 606.550781 641.292969 607.207031 641.019531 607.414062 640.683594 C 607.621094 640.351562 608.46875 640.078125 609.296875 640.078125 C 610.121094 640.078125 611.484375 639.628906 612.316406 639.082031 C 613.152344 638.535156 613.984375 638.238281 614.164062 638.417969 C 614.347656 638.601562 615.363281 638.460938 616.425781 638.113281 C 621.390625 636.472656 630.105469 636.273438 696.765625 636.269531 C 761.828125 636.265625 771.226562 636.4375 772.746094 637.65625 C 773.082031 637.925781 774.382812 638.335938 775.640625 638.570312 C 776.898438 638.804688 778.078125 639.242188 778.257812 639.539062 C 778.441406 639.832031 779.082031 640.078125 779.675781 640.078125 C 780.867188 640.078125 793.441406 646.367188 794.980469 647.734375 C 795.507812 648.203125 796.191406 648.589844 796.5 648.59375 C 796.808594 648.597656 797.742188 649.140625 798.578125 649.796875 C 799.414062 650.457031 801.328125 651.949219 802.832031 653.121094 C 804.339844 654.289062 806.9375 656.3125 808.609375 657.617188 C 812.027344 660.28125 839.820312 688.125 843.28125 692.351562 C 844.511719 693.855469 848.566406 698.261719 852.289062 702.140625 C 856.011719 706.023438 860.425781 710.789062 862.097656 712.738281 C 870.828125 722.90625 895.871094 747.050781 903.648438 752.800781 C 904.53125 753.457031 906.328125 754.890625 907.644531 755.992188 C 908.957031 757.09375 910.253906 757.996094 910.53125 757.996094 C 910.800781 757.996094 912.324219 758.886719 913.914062 759.972656 C 917.863281 762.671875 918.730469 763.175781 922.578125 765.015625 C 924.417969 765.890625 926.332031 766.863281 926.832031 767.171875 C 927.335938 767.476562 928.15625 767.886719 928.65625 768.074219 C 929.15625 768.261719 930.042969 768.671875 930.625 768.980469 C 931.203125 769.292969 932.449219 769.546875 933.390625 769.546875 C 934.328125 769.546875 935.359375 769.800781 935.675781 770.117188 C 935.996094 770.429688 937.617188 770.847656 939.28125 771.046875 C 940.945312 771.246094 942.574219 771.671875 942.898438 771.996094 C 943.222656 772.320312 947.347656 772.585938 952.085938 772.585938 C 958.753906 772.585938 961.121094 772.367188 962.636719 771.609375 C 963.710938 771.074219 965.105469 770.773438 965.742188 770.9375 C 966.375 771.105469 967.382812 770.867188 967.984375 770.414062 C 968.585938 769.957031 969.75 769.574219 970.574219 769.566406 C 972.277344 769.542969 981.703125 765.039062 982.792969 763.726562 C 983.1875 763.25 983.820312 762.855469 984.195312 762.851562 C 984.574219 762.84375 985.808594 762.023438 986.9375 761.027344 C 988.070312 760.027344 989.179688 759.210938 989.398438 759.210938 C 990.125 759.210938 999.164062 749.929688 999.164062 749.183594 C 999.164062 748.785156 999.742188 747.941406 1000.441406 747.304688 C 1001.144531 746.667969 1002.140625 745.324219 1002.65625 744.320312 C 1003.167969 743.316406 1003.757812 742.359375 1003.964844 742.191406 C 1004.539062 741.730469 1007.308594 737.222656 1008.070312 735.507812 C 1008.441406 734.671875 1009.460938 732.527344 1010.339844 730.738281 C 1011.214844 728.953125 1011.929688 726.972656 1011.929688 726.332031 C 1011.929688 725.695312 1012.191406 725.171875 1012.511719 725.171875 C 1012.828125 725.171875 1013.269531 724.214844 1013.488281 723.046875 C 1013.710938 721.875 1014.132812 720.917969 1014.429688 720.917969 C 1014.726562 720.917969 1014.96875 720.113281 1014.96875 719.132812 C 1014.96875 718.148438 1015.242188 717.175781 1015.578125 716.96875 C 1015.910156 716.761719 1016.183594 715.683594 1016.183594 714.570312 C 1016.183594 713.457031 1016.589844 711.765625 1017.089844 710.808594 C 1017.585938 709.847656 1017.835938 708.574219 1017.644531 707.972656 C 1017.457031 707.371094 1017.730469 706.21875 1018.261719 705.410156 C 1018.8125 704.566406 1019.222656 702.652344 1019.222656 700.917969 C 1019.222656 699.253906 1019.496094 697.722656 1019.832031 697.515625 C 1020.167969 697.308594 1020.441406 695.773438 1020.441406 694.101562 C 1020.441406 692.425781 1020.882812 689.699219 1021.429688 688.039062 C 1022.050781 686.132812 1022.300781 683.96875 1022.097656 682.1875 C 1021.917969 680.585938 1022.164062 677.902344 1022.667969 675.980469 C 1023.402344 673.183594 1023.554688 666.074219 1023.546875 635.078125 C 1023.542969 610.066406 1023.328125 597.164062 1022.902344 596.367188 C 1022.550781 595.714844 1022.257812 592.355469 1022.25 588.90625 C 1022.242188 585.457031 1021.949219 581.542969 1021.597656 580.203125 C 1021.25 578.867188 1020.699219 574.902344 1020.378906 571.390625 C 1020.058594 567.878906 1019.644531 563.367188 1019.453125 561.363281 C 1019.261719 559.355469 1018.851562 557.398438 1018.535156 557.015625 C 1018.21875 556.632812 1017.878906 554.441406 1017.777344 552.140625 C 1017.675781 549.84375 1017.277344 547.375 1016.890625 546.648438 C 1016.5 545.925781 1016.183594 544.101562 1016.183594 542.59375 C 1016.183594 541.085938 1015.910156 539.6875 1015.578125 539.480469 C 1015.242188 539.273438 1014.96875 537.808594 1014.96875 536.222656 C 1014.96875 534.636719 1014.675781 533.046875 1014.320312 532.691406 C 1013.722656 532.09375 1012.964844 528.550781 1012.136719 522.460938 C 1011.953125 521.121094 1011.558594 519.769531 1011.261719 519.453125 C 1010.960938 519.132812 1010.714844 517.753906 1010.714844 516.382812 C 1010.714844 515.011719 1010.398438 513.574219 1010.015625 513.191406 C 1009.351562 512.527344 1008.609375 509.464844 1007.875 504.375 C 1007.695312 503.117188 1007.300781 501.9375 1007.003906 501.753906 C 1006.703125 501.570312 1006.460938 500.773438 1006.460938 499.984375 C 1006.460938 499.195312 1006.070312 497.773438 1005.59375 496.828125 C 1005.117188 495.882812 1004.40625 493.875 1004.015625 492.371094 C 1003.621094 490.867188 1003.054688 489.164062 1002.753906 488.582031 C 1002.453125 488 1002.203125 486.996094 1002.203125 486.351562 C 1002.203125 485.707031 1001.75 484.265625 1001.191406 483.152344 C 999.316406 479.414062 999.164062 479.019531 999.164062 477.886719 C 999.164062 476.855469 998.15625 474.277344 996.695312 471.5625 C 996.382812 470.980469 996.125 469.972656 996.125 469.320312 C 996.125 468.664062 995.851562 467.960938 995.519531 467.753906 C 995.183594 467.546875 994.910156 466.710938 994.910156 465.894531 C 994.910156 465.078125 994.636719 464.410156 994.300781 464.410156 C 993.96875 464.410156 993.695312 463.9375 993.695312 463.355469 C 993.695312 462.777344 993.011719 460.863281 992.175781 459.101562 C 991.125 456.878906 990.09375 454.648438 989.082031 452.40625 C 988.214844 450.484375 987.257812 448.4375 986.953125 447.855469 C 986.648438 447.277344 986.402344 446.386719 986.402344 445.882812 C 986.402344 445.375 986.179688 444.960938 985.910156 444.960938 C 985.640625 444.960938 984.9375 443.796875 984.347656 442.378906 C 983.757812 440.957031 982.769531 438.835938 982.15625 437.667969 C 981.542969 436.496094 979.859375 433.28125 978.417969 430.523438 C 976.976562 427.765625 975.582031 425.511719 975.324219 425.511719 C 975.066406 425.511719 974.851562 424.964844 974.851562 424.292969 C 974.851562 423.625 974.621094 423.078125 974.34375 423.078125 C 974.0625 423.078125 973.515625 422.464844 973.128906 421.710938 C 971.007812 417.574219 963.332031 406.128906 961.859375 404.90625 C 961.316406 404.457031 960.871094 403.847656 960.871094 403.554688 C 960.871094 401.707031 942.863281 382.34375 937.082031 377.972656 C 935.53125 376.800781 933.480469 375.117188 932.527344 374.234375 C 931.574219 373.351562 930.492188 372.628906 930.125 372.628906 C 929.753906 372.628906 928.976562 372.101562 928.390625 371.457031 C 927.808594 370.8125 926.464844 369.84375 925.410156 369.304688 C 924.355469 368.765625 922.394531 367.644531 921.058594 366.816406 C 919.722656 365.984375 918.011719 364.996094 917.257812 364.613281 C 916.507812 364.234375 915.890625 363.695312 915.890625 363.414062 C 915.890625 363.132812 915.34375 362.902344 914.675781 362.902344 C 914.007812 362.902344 913.460938 362.628906 913.460938 362.296875 C 913.460938 361.960938 913.101562 361.6875 912.664062 361.6875 C 912.222656 361.6875 910.445312 361.003906 908.714844 360.167969 C 906.980469 359.332031 905.152344 358.648438 904.648438 358.648438 C 904.144531 358.648438 903.734375 358.375 903.734375 358.039062 C 903.734375 357.707031 903.085938 357.433594 902.289062 357.433594 C 901.496094 357.433594 900.488281 357.003906 900.050781 356.476562 C 899.617188 355.953125 898.757812 355.65625 898.144531 355.816406 C 897.53125 355.976562 896.640625 355.722656 896.167969 355.25 C 895.699219 354.777344 894.351562 354.394531 893.175781 354.394531 C 892.003906 354.394531 890.871094 354.121094 890.667969 353.785156 C 890.460938 353.449219 889.273438 353.175781 888.03125 353.175781 C 886.785156 353.175781 885.222656 352.792969 884.550781 352.324219 C 882.800781 351.097656 877.121094 350.6875 857.84375 350.394531 C 847.222656 350.234375 840.480469 350.363281 839.910156 350.734375 M 584.621094 351.960938 C 584.621094 352.304688 586.285156 352.566406 588.417969 352.558594 C 591.097656 352.554688 591.949219 352.375 591.304688 351.960938 C 590.101562 351.183594 584.621094 351.183594 584.621094 351.960938 M 602.398438 353.625 C 603.988281 353.75 606.585938 353.75 608.175781 353.625 C 609.761719 353.5 608.460938 353.394531 605.285156 353.394531 C 602.109375 353.394531 600.8125 353.5 602.398438 353.625 M 624.59375 353.605469 C 625.347656 353.753906 626.441406 353.746094 627.023438 353.59375 C 627.605469 353.441406 626.988281 353.324219 625.648438 353.332031 C 624.3125 353.335938 623.835938 353.460938 624.59375 353.605469 M 696.601562 359.253906 C 696.601562 360.425781 696.730469 360.902344 696.882812 360.320312 C 697.035156 359.734375 697.035156 358.777344 696.882812 358.191406 C 696.730469 357.605469 696.601562 358.085938 696.601562 359.253906 M 694.640625 366.851562 C 694.640625 368.023438 694.914062 368.980469 695.246094 368.980469 C 695.582031 368.980469 695.855469 368.023438 695.855469 366.851562 C 695.855469 365.683594 695.582031 364.726562 695.246094 364.726562 C 694.914062 364.726562 694.640625 365.683594 694.640625 366.851562 M 693.421875 375.160156 C 693.421875 377.375 693.6875 377.292969 694.261719 374.90625 C 694.5 373.914062 694.410156 373.234375 694.042969 373.234375 C 693.703125 373.234375 693.421875 374.101562 693.421875 375.160156 M 475.816406 375.363281 C 475.394531 375.871094 475.328125 376.273438 475.667969 376.273438 C 476.003906 376.273438 476.617188 375.863281 477.035156 375.363281 C 477.457031 374.855469 477.519531 374.453125 477.183594 374.453125 C 476.847656 374.453125 476.234375 374.863281 475.816406 375.363281 M 692.371094 382.960938 C 692.371094 384.464844 692.492188 385.082031 692.636719 384.328125 C 692.78125 383.578125 692.78125 382.34375 692.636719 381.59375 C 692.492188 380.839844 692.371094 381.457031 692.371094 382.960938 M 690.382812 390.523438 C 690.382812 391.710938 690.65625 392.6875 690.992188 392.6875 C 691.328125 392.6875 691.601562 391.882812 691.601562 390.898438 C 691.601562 389.914062 691.328125 388.941406 690.992188 388.734375 C 690.628906 388.511719 690.382812 389.234375 690.382812 390.523438 M 689.167969 399.675781 C 689.167969 400.847656 689.273438 401.804688 689.40625 401.804688 C 689.535156 401.804688 689.753906 400.847656 689.890625 399.675781 C 690.027344 398.507812 689.921875 397.550781 689.652344 397.550781 C 689.386719 397.550781 689.167969 398.507812 689.167969 399.675781 M 687.628906 407.335938 C 687.40625 408.039062 687.523438 408.914062 687.890625 409.28125 C 688.378906 409.765625 688.558594 409.417969 688.558594 408.003906 C 688.558594 405.757812 688.210938 405.507812 687.628906 407.335938 M 685.90625 412.746094 C 685.414062 414.609375 686.382812 418.398438 686.984375 416.972656 C 687.199219 416.457031 687.136719 414.953125 686.839844 413.628906 C 686.347656 411.421875 686.269531 411.351562 685.90625 412.746094 M 868.175781 419.300781 C 865.835938 419.40625 863.660156 419.753906 863.34375 420.070312 C 863.027344 420.386719 862 420.648438 861.066406 420.648438 C 860.128906 420.648438 859.363281 420.921875 859.363281 421.253906 C 859.363281 421.589844 858.984375 421.863281 858.519531 421.863281 C 858.058594 421.863281 856.933594 422.25 856.023438 422.722656 C 853.765625 423.890625 846.597656 430.921875 846.597656 431.964844 C 846.597656 432.425781 846.324219 432.804688 845.988281 432.804688 C 845.65625 432.804688 845.382812 433.21875 845.382812 433.722656 C 845.382812 434.230469 845.140625 435.117188 844.847656 435.699219 C 842.789062 439.773438 842.34375 441.699219 842.34375 446.53125 C 842.34375 450.003906 842.652344 452.304688 843.28125 453.519531 C 843.792969 454.515625 844.070312 455.5625 843.894531 455.851562 C 843.71875 456.136719 843.980469 456.710938 844.476562 457.121094 C 844.976562 457.535156 845.382812 458.386719 845.382812 459.015625 C 845.382812 459.640625 845.65625 460.15625 845.988281 460.15625 C 846.324219 460.15625 846.597656 460.550781 846.597656 461.035156 C 846.597656 461.515625 848.152344 463.589844 850.050781 465.640625 C 855.152344 471.152344 862.027344 474.136719 869.625 474.136719 C 873.820312 474.136719 879.671875 472.773438 880.378906 471.632812 C 880.558594 471.339844 881.171875 471.089844 881.738281 471.082031 C 883.460938 471.058594 888.339844 467.0625 890.796875 463.667969 C 894.082031 459.125 895.570312 455.703125 896.148438 451.34375 C 896.835938 446.171875 896.597656 443.222656 895.058594 437.96875 C 893.625 433.070312 889.484375 427.140625 885.703125 424.566406 C 884.253906 423.582031 883.070312 422.570312 883.070312 422.320312 C 883.070312 422.066406 882.539062 421.863281 881.886719 421.863281 C 881.238281 421.863281 880.539062 421.589844 880.332031 421.253906 C 880.125 420.921875 879.175781 420.648438 878.21875 420.648438 C 877.265625 420.648438 876.390625 420.417969 876.28125 420.136719 C 875.984375 419.390625 873.019531 419.085938 868.175781 419.300781 M 685.066406 422.773438 C 685.074219 424.113281 685.199219 424.585938 685.34375 423.832031 C 685.488281 423.074219 685.484375 421.980469 685.332031 421.398438 C 685.179688 420.820312 685.058594 421.4375 685.066406 422.773438 M 683.457031 428.292969 C 682.890625 429.777344 683.023438 431.589844 683.699219 431.589844 C 684.03125 431.589844 684.304688 430.628906 684.304688 429.460938 C 684.304688 427.152344 684.039062 426.785156 683.457031 428.292969 M 513.65625 428.984375 C 514.574219 429.125 516.078125 429.125 517 428.984375 C 517.917969 428.84375 517.164062 428.730469 515.328125 428.730469 C 513.488281 428.730469 512.734375 428.84375 513.65625 428.984375 M 426.734375 431.320312 C 425.839844 432.292969 425.765625 432.804688 426.519531 432.804688 C 427.035156 432.804688 428.007812 430.976562 427.660156 430.652344 C 427.570312 430.566406 427.152344 430.867188 426.734375 431.320312 M 681.875 436.183594 C 681.875 437.066406 682.136719 437.574219 682.480469 437.363281 C 682.816406 437.15625 683.089844 436.457031 683.089844 435.808594 C 683.089844 435.15625 682.816406 434.628906 682.480469 434.628906 C 682.148438 434.628906 681.875 435.328125 681.875 436.183594 M 501.589844 446.175781 C 501.589844 451.023438 501.683594 453.007812 501.796875 450.582031 C 501.914062 448.160156 501.914062 444.191406 501.796875 441.769531 C 501.683594 439.347656 501.589844 441.328125 501.589844 446.175781 M 550.722656 444.960938 C 550.722656 446.128906 550.847656 446.609375 551 446.023438 C 551.152344 445.4375 551.152344 444.480469 551 443.898438 C 550.847656 443.3125 550.722656 443.789062 550.722656 444.960938 M 679.242188 445.367188 C 678.609375 445.996094 678.765625 448 679.441406 448 C 679.777344 448 680.050781 447.316406 680.050781 446.480469 C 680.050781 444.886719 679.910156 444.695312 679.242188 445.367188 M 678.074219 450.175781 C 677.824219 450.425781 677.621094 451.191406 677.621094 451.871094 C 677.621094 452.765625 677.804688 452.921875 678.285156 452.441406 C 678.648438 452.074219 678.855469 451.3125 678.742188 450.746094 C 678.625 450.179688 678.324219 449.921875 678.074219 450.175781 M 550.769531 454.988281 C 550.773438 456.996094 550.886719 457.742188 551.023438 456.652344 C 551.15625 455.558594 551.15625 453.917969 551.015625 453.003906 C 550.875 452.089844 550.765625 452.984375 550.769531 454.988281 M 501.5625 460.460938 C 501.5625 463.46875 501.664062 464.777344 501.792969 463.367188 C 501.917969 461.953125 501.917969 459.492188 501.792969 457.894531 C 501.667969 456.296875 501.5625 457.453125 501.5625 460.460938 M 674.902344 459.117188 C 674.644531 459.71875 674.601562 460.378906 674.808594 460.589844 C 675.425781 461.203125 675.925781 460.339844 675.640625 459.140625 C 675.386719 458.078125 675.355469 458.078125 674.902344 459.117188 M 403.320312 477.542969 C 403.078125 477.785156 402.878906 478.40625 402.878906 478.917969 C 402.878906 479.601562 403.058594 479.671875 403.554688 479.171875 C 403.925781 478.800781 404.125 478.183594 403.996094 477.800781 C 403.867188 477.414062 403.5625 477.300781 403.320312 477.542969 M 807.695312 478.363281 C 807.195312 478.703125 805.917969 478.984375 804.859375 478.992188 C 801.886719 479.003906 794.78125 482.941406 791.320312 486.484375 C 789.632812 488.21875 788.25 489.945312 788.246094 490.320312 C 788.246094 490.699219 787.839844 491.34375 787.339844 491.757812 C 786.84375 492.171875 786.566406 492.722656 786.726562 492.980469 C 786.886719 493.238281 786.609375 493.789062 786.113281 494.199219 C 785.613281 494.613281 785.207031 495.585938 785.207031 496.359375 C 785.207031 497.136719 784.933594 497.941406 784.597656 498.144531 C 783.609375 498.757812 783.835938 511.386719 784.871094 513.382812 C 785.355469 514.316406 785.632812 515.273438 785.484375 515.507812 C 785.339844 515.746094 785.628906 516.277344 786.125 516.691406 C 786.621094 517.105469 787.03125 517.957031 787.03125 518.582031 C 787.03125 519.210938 787.253906 519.722656 787.527344 519.722656 C 787.800781 519.722656 788.636719 520.816406 789.386719 522.152344 C 790.136719 523.488281 792.03125 525.453125 793.601562 526.523438 C 795.167969 527.59375 796.542969 528.6875 796.652344 528.957031 C 796.765625 529.230469 797.347656 529.449219 797.949219 529.449219 C 798.546875 529.449219 799.378906 529.859375 799.792969 530.363281 C 800.210938 530.863281 801.183594 531.273438 801.960938 531.273438 C 802.734375 531.273438 803.539062 531.546875 803.746094 531.882812 C 803.960938 532.226562 807.019531 532.488281 810.847656 532.488281 C 817.335938 532.488281 817.738281 532.410156 822.058594 530.304688 C 824.523438 529.101562 826.539062 527.871094 826.539062 527.570312 C 826.539062 527.265625 826.894531 527.019531 827.328125 527.019531 C 828.25 527.019531 832.394531 522.910156 833.550781 520.84375 C 834.792969 518.640625 836.046875 515.976562 836.917969 513.695312 C 837.945312 511.011719 837.984375 497.707031 836.964844 497.367188 C 836.578125 497.238281 836.265625 496.714844 836.265625 496.203125 C 836.265625 493.203125 828.71875 483.558594 825.167969 482.023438 C 824.417969 481.699219 823.394531 481.191406 822.890625 480.894531 C 818.964844 478.574219 809.675781 477.027344 807.695312 478.363281 M 924.402344 478.390625 C 923.898438 478.714844 922.480469 478.984375 921.246094 478.992188 C 920.011719 478.996094 918.832031 479.273438 918.625 479.605469 C 918.421875 479.941406 917.8125 480.214844 917.28125 480.214844 C 916.746094 480.214844 915.414062 480.898438 914.316406 481.734375 C 913.222656 482.570312 912.0625 483.253906 911.738281 483.253906 C 910.871094 483.253906 905.386719 489.4375 904.421875 491.503906 C 903.980469 492.453125 903.523438 493.398438 903.054688 494.339844 C 902.761719 494.917969 902.519531 496.027344 902.519531 496.800781 C 902.519531 497.574219 902.238281 498.484375 901.898438 498.828125 C 900.707031 500.019531 900.46875 507.066406 901.535156 509.617188 C 902.074219 510.914062 902.519531 512.460938 902.519531 513.054688 C 902.519531 515.972656 907.804688 523.28125 912.714844 527.152344 C 914.917969 528.890625 920.011719 531.273438 921.523438 531.273438 C 922.304688 531.273438 923.238281 531.570312 923.597656 531.929688 C 924.011719 532.339844 926.039062 532.476562 929.039062 532.292969 C 935.117188 531.925781 937.800781 531.367188 939.140625 530.191406 C 939.726562 529.679688 940.203125 529.457031 940.203125 529.695312 C 940.203125 530.535156 944.1875 527.894531 947.269531 525.011719 C 950.175781 522.292969 952.578125 518.285156 954.808594 512.429688 C 955.253906 511.261719 955.730469 508.140625 955.863281 505.496094 C 956.097656 500.871094 955.644531 498.78125 953.515625 494.660156 C 953.214844 494.078125 952.96875 493.316406 952.96875 492.960938 C 952.96875 492.609375 952.285156 491.582031 951.449219 490.679688 C 950.613281 489.78125 949.929688 488.75 949.929688 488.394531 C 949.929688 486.902344 945.375 483.246094 940.8125 481.078125 C 939.746094 480.574219 938.6875 480.058594 937.628906 479.53125 C 937.050781 479.238281 935.492188 479 934.171875 479 C 932.847656 479 931.597656 478.726562 931.390625 478.390625 C 930.910156 477.613281 925.601562 477.613281 924.402344 478.390625 M 490.253906 481.253906 C 491.003906 481.398438 492.238281 481.398438 492.988281 481.253906 C 493.742188 481.105469 493.125 480.988281 491.621094 480.988281 C 490.117188 480.988281 489.5 481.105469 490.253906 481.253906 M 452.457031 483.816406 C 451.875 484.460938 451.488281 485.390625 451.601562 485.886719 C 451.730469 486.441406 452.210938 485.988281 452.859375 484.714844 C 454.058594 482.355469 453.964844 482.148438 452.457031 483.816406 M 449.679688 505.441406 C 449.679688 515.367188 449.898438 520.941406 450.289062 520.941406 C 450.679688 520.941406 450.894531 515.367188 450.894531 505.441406 C 450.894531 495.511719 450.679688 489.941406 450.289062 489.941406 C 449.898438 489.941406 449.679688 495.511719 449.679688 505.441406 M 601.199219 499.058594 C 601.199219 500.5625 601.316406 501.175781 601.460938 500.425781 C 601.605469 499.671875 601.605469 498.441406 601.460938 497.691406 C 601.316406 496.9375 601.199219 497.554688 601.199219 499.058594 M 394.367188 500.308594 C 394.367188 500.996094 394.640625 501.390625 394.976562 501.183594 C 395.308594 500.980469 395.582031 500.414062 395.582031 499.933594 C 395.582031 499.453125 395.308594 499.058594 394.976562 499.058594 C 394.640625 499.058594 394.367188 499.621094 394.367188 500.308594 M 601.207031 505.441406 C 601.210938 507.113281 601.328125 507.722656 601.46875 506.800781 C 601.609375 505.875 601.605469 504.507812 601.460938 503.761719 C 601.316406 503.011719 601.203125 503.769531 601.207031 505.441406 M 642.691406 508.472656 C 641.703125 509.285156 641.023438 510.078125 641.1875 510.238281 C 641.347656 510.398438 642.398438 509.726562 643.523438 508.746094 C 645.972656 506.605469 645.261719 506.375 642.691406 508.472656 M 632.171875 515.742188 C 630.277344 516.789062 629.847656 517.296875 630.867188 517.28125 C 631.339844 517.273438 632.410156 516.730469 633.246094 516.078125 C 634.933594 514.757812 634.308594 514.5625 632.171875 515.742188 M 601.742188 521.699219 L 601.640625 525.800781 L 604.222656 525.792969 C 605.644531 525.789062 607.21875 525.507812 607.71875 525.167969 C 608.378906 524.722656 607.796875 524.597656 605.589844 524.722656 L 602.550781 524.890625 L 602.199219 521.242188 L 601.84375 517.597656 Z M 621.089844 520.941406 C 620.351562 521.417969 620.441406 521.53125 621.546875 521.539062 C 622.296875 521.542969 622.914062 521.273438 622.914062 520.941406 C 622.914062 520.179688 622.269531 520.179688 621.089844 520.941406 M 616.226562 522.761719 C 615.472656 523.25 615.523438 523.351562 616.53125 523.351562 C 617.199219 523.351562 618.15625 523.085938 618.660156 522.761719 C 619.414062 522.277344 619.363281 522.175781 618.355469 522.175781 C 617.6875 522.175781 616.730469 522.441406 616.226562 522.761719 M 610.757812 523.980469 C 610.066406 524.425781 610.320312 524.570312 611.820312 524.578125 C 612.90625 524.582031 613.796875 524.3125 613.796875 523.980469 C 613.796875 523.207031 611.953125 523.207031 610.757812 523.980469 M 386.300781 524.347656 C 386.058594 524.589844 385.867188 525.359375 385.875 526.054688 C 385.894531 527.226562 385.945312 527.238281 386.527344 526.234375 C 387.207031 525.066406 387.035156 523.613281 386.300781 524.347656 M 463.4375 529.929688 C 463.230469 530.265625 463.476562 530.699219 463.984375 530.890625 C 465.285156 531.390625 470.386719 530.613281 469.992188 529.976562 C 469.503906 529.183594 466.441406 529.34375 465.582031 530.203125 C 464.980469 530.804688 464.722656 530.792969 464.320312 530.140625 C 464.007812 529.636719 463.667969 529.554688 463.4375 529.929688 M 471.867188 530.058594 C 471.660156 530.390625 472.054688 530.664062 472.742188 530.664062 C 473.429688 530.664062 473.992188 530.390625 473.992188 530.058594 C 473.992188 529.722656 473.601562 529.449219 473.117188 529.449219 C 472.636719 529.449219 472.074219 529.722656 471.867188 530.058594 M 475.476562 530.410156 C 474.398438 531.289062 474.394531 531.34375 475.410156 531.019531 C 476.023438 530.824219 478.554688 530.664062 481.035156 530.664062 C 483.636719 530.664062 485.542969 530.410156 485.542969 530.058594 C 485.542969 529.007812 476.828125 529.3125 475.476562 530.410156 M 490.40625 530.058594 C 490.40625 530.390625 491.652344 530.664062 493.175781 530.664062 C 494.871094 530.664062 495.800781 530.429688 495.574219 530.058594 C 495.367188 529.722656 494.117188 529.449219 492.800781 529.449219 C 491.484375 529.449219 490.40625 529.722656 490.40625 530.058594 M 498.734375 532.730469 C 499.335938 533.53125 500.050781 534.050781 500.328125 533.882812 C 500.605469 533.714844 500.273438 533.058594 499.59375 532.425781 C 497.878906 530.824219 497.425781 530.984375 498.734375 532.730469 M 383.261719 534.679688 C 383.019531 534.921875 382.820312 535.542969 382.820312 536.054688 C 382.820312 536.738281 383 536.808594 383.496094 536.308594 C 383.867188 535.9375 384.066406 535.320312 383.9375 534.9375 C 383.808594 534.550781 383.503906 534.4375 383.261719 534.679688 M 862.707031 538.101562 C 857.09375 540.011719 853.183594 542.480469 849.371094 546.519531 C 847.175781 548.84375 845.382812 551.15625 845.382812 551.65625 C 845.382812 552.570312 845.203125 553.015625 843.359375 556.699219 C 842.011719 559.386719 841.953125 569.304688 843.273438 571.050781 C 843.765625 571.699219 844.167969 572.847656 844.167969 573.597656 C 844.167969 574.351562 844.441406 575.136719 844.773438 575.339844 C 845.109375 575.546875 845.382812 576.214844 845.382812 576.824219 C 845.382812 577.429688 846.957031 579.535156 848.878906 581.5 C 853.175781 585.894531 854.796875 587.179688 857.875 588.628906 C 859.195312 589.25 860.75 590.003906 861.328125 590.300781 C 862.792969 591.050781 876.824219 590.992188 877.292969 590.234375 C 877.5 589.898438 878.242188 589.625 878.945312 589.625 C 879.644531 589.625 881.113281 588.941406 882.210938 588.105469 C 883.304688 587.269531 884.484375 586.585938 884.832031 586.585938 C 886.484375 586.585938 891.992188 580.007812 894.117188 575.492188 C 894.390625 574.910156 894.914062 573.847656 895.277344 573.136719 C 895.890625 571.9375 896.699219 566.1875 896.546875 564.097656 C 896.246094 559.898438 895.589844 556.195312 895.148438 556.195312 C 894.855469 556.195312 894.617188 555.542969 894.617188 554.75 C 894.617188 553.953125 894.207031 552.964844 893.707031 552.546875 C 893.203125 552.132812 892.792969 551.410156 892.792969 550.941406 C 892.792969 549.664062 885.550781 542.679688 882.65625 541.171875 C 881.441406 540.539062 880.226562 539.910156 879.011719 539.28125 C 875.21875 537.347656 866.734375 536.730469 862.707031 538.101562 M 381.601562 541 C 381.601562 542.105469 381.855469 542.738281 382.210938 542.519531 C 382.546875 542.3125 382.820312 541.628906 382.820312 541 C 382.820312 540.371094 382.546875 539.6875 382.210938 539.480469 C 381.855469 539.257812 381.601562 539.890625 381.601562 541 M 380.386719 546.738281 C 380.386719 547.554688 380.65625 548.386719 380.988281 548.59375 C 381.324219 548.800781 381.4375 548.574219 381.25 548.082031 C 381.0625 547.597656 381.210938 547.015625 381.570312 546.792969 C 382.296875 546.34375 381.863281 545.253906 380.960938 545.253906 C 380.644531 545.253906 380.386719 545.921875 380.386719 546.738281 M 378.96875 551.128906 C 378.339844 551.761719 378.492188 553.761719 379.171875 553.761719 C 379.507812 553.761719 379.78125 553.078125 379.78125 552.242188 C 379.78125 550.652344 379.640625 550.460938 378.96875 551.128906 M 377.355469 558.472656 C 377.363281 559.777344 377.496094 559.945312 377.957031 559.234375 C 378.722656 558.042969 378.722656 556.800781 377.957031 556.800781 C 377.621094 556.800781 377.351562 557.554688 377.355469 558.472656 M 376.152344 563.824219 C 376.167969 565.394531 376.25 565.476562 376.820312 564.492188 C 377.289062 563.6875 377.285156 563.183594 376.804688 562.699219 C 376.3125 562.210938 376.136719 562.515625 376.152344 563.824219 M 374.632812 569.136719 C 374.371094 569.738281 374.328125 570.398438 374.539062 570.605469 C 375.15625 571.222656 375.652344 570.355469 375.367188 569.160156 C 375.117188 568.097656 375.082031 568.097656 374.632812 569.136719 M 370.511719 587.546875 C 370.257812 587.796875 370.0625 588.710938 370.074219 589.574219 C 370.089844 590.953125 370.167969 591.011719 370.722656 590.0625 C 371.414062 588.875 371.238281 586.808594 370.511719 587.546875 M 368.839844 596.917969 C 368.839844 598.433594 369.078125 599.273438 369.445312 599.046875 C 369.78125 598.839844 370.054688 597.882812 370.054688 596.917969 C 370.054688 595.957031 369.78125 595 369.445312 594.792969 C 369.078125 594.566406 368.839844 595.40625 368.839844 596.917969 M 366.003906 610.636719 C 365.800781 611.160156 365.949219 611.898438 366.324219 612.277344 C 366.839844 612.789062 367.015625 612.546875 367.015625 611.324219 C 367.015625 609.496094 366.558594 609.1875 366.003906 610.636719 M 364.582031 619.070312 C 364.582031 620.257812 364.6875 621.234375 364.820312 621.234375 C 365.316406 621.234375 365.570312 617.515625 365.089844 617.21875 C 364.8125 617.046875 364.582031 617.878906 364.582031 619.070312 M 363.53125 627.3125 C 363.53125 628.816406 363.652344 629.429688 363.796875 628.679688 C 363.941406 627.925781 363.941406 626.695312 363.796875 625.945312 C 363.652344 625.191406 363.53125 625.808594 363.53125 627.3125 M 362 635.5625 C 361.75 635.816406 361.542969 637.125 361.542969 638.476562 C 361.542969 640.214844 361.734375 640.738281 362.195312 640.277344 C 362.550781 639.921875 362.753906 638.609375 362.648438 637.363281 C 362.542969 636.117188 362.25 635.304688 362 635.5625 M 360.503906 649.496094 C 360.507812 651.167969 360.625 651.78125 360.765625 650.855469 C 360.90625 649.933594 360.902344 648.566406 360.757812 647.816406 C 360.613281 647.070312 360.5 647.824219 360.503906 649.496094 M 359.285156 662.261719 C 359.292969 663.933594 359.410156 664.546875 359.550781 663.621094 C 359.6875 662.695312 359.683594 661.328125 359.539062 660.582031 C 359.398438 659.835938 359.28125 660.589844 359.285156 662.261719 M 357.359375 688.550781 C 357.316406 695.183594 357.511719 699.035156 357.898438 699.035156 C 358.613281 699.035156 358.613281 682.695312 357.898438 679.890625 C 357.625 678.820312 357.402344 682.390625 357.359375 688.550781 M 359.265625 711.496094 C 359.273438 712.835938 359.398438 713.308594 359.542969 712.554688 C 359.6875 711.796875 359.683594 710.703125 359.53125 710.121094 C 359.378906 709.539062 359.257812 710.160156 359.265625 711.496094 M 360.328125 720.953125 C 360.328125 721.640625 360.601562 722.035156 360.9375 721.832031 C 361.269531 721.625 361.542969 721.0625 361.542969 720.578125 C 361.542969 720.097656 361.269531 719.703125 360.9375 719.703125 C 360.601562 719.703125 360.328125 720.265625 360.328125 720.953125 M 361.542969 726.351562 C 361.542969 727.042969 361.816406 727.605469 362.152344 727.605469 C 362.488281 727.605469 362.761719 727.210938 362.761719 726.730469 C 362.761719 726.246094 362.488281 725.683594 362.152344 725.476562 C 361.816406 725.269531 361.542969 725.664062 361.542969 726.351562 M 372.617188 750.6875 C 373.039062 751.363281 373.59375 751.917969 373.847656 751.917969 C 374.722656 751.917969 374.304688 750.992188 373.078125 750.226562 C 371.9375 749.515625 371.90625 749.546875 372.617188 750.6875 " fill-opacity="1" fill-rule="evenodd"/></svg>