<?xml version="1.0" encoding="UTF-8"?>
<svg version="1.1" xmlns="http://www.w3.org/2000/svg" width="112" height="112">
<path d="M0 0 C4.57304375 1.87997155 8.51826477 4.38989447 12.63671875 7.10546875 C13.44302734 7.61013672 14.24933594 8.11480469 15.08007812 8.63476562 C20.21899806 12.01372296 22.78066771 14.43324848 24.44921875 20.41796875 C24.85618219 25.04255331 23.82274424 28.69759815 21.69921875 32.79296875 C19.40242297 35.47256383 17.69360865 37.03910304 14.44921875 38.41796875 C12.13671875 38.10546875 12.13671875 38.10546875 10.44921875 37.41796875 C10.92359375 36.59296875 11.39796875 35.76796875 11.88671875 34.91796875 C13.68491474 30.89000974 14.07264425 27.78623296 14.44921875 23.41796875 C13.76859375 23.17046875 13.08796875 22.92296875 12.38671875 22.66796875 C8.88056792 21.17598967 5.73301507 19.34961364 2.44921875 17.41796875 C1.12826574 22.26550275 0.12833079 27.08604466 -0.69921875 32.04296875 C-1.00085937 33.84507813 -1.00085937 33.84507813 -1.30859375 35.68359375 C-1.71984628 38.17193185 -2.12350344 40.66153723 -2.51953125 43.15234375 C-3.67215465 49.95136282 -5.04826486 55.45623873 -8.55078125 61.41796875 C-4.17843326 58.04501459 -2.97346605 54.99913446 -1.30078125 49.73046875 C0.8472278 43.82010846 0.8472278 43.82010846 3.37890625 42.12890625 C5.8068689 41.549997 7.95325912 41.41796875 10.44921875 41.41796875 C11.37863281 41.35609375 12.30804688 41.29421875 13.265625 41.23046875 C18.70443942 40.99367683 22.94443908 41.06557458 27.44921875 44.41796875 C36.25045466 53.46306762 38.13085456 64.54357643 38.01171875 76.73046875 C38.04749023 78.44073242 38.04749023 78.44073242 38.08398438 80.18554688 C38.06783078 89.40925056 38.06783078 89.40925056 35.14453125 93.15234375 C32.31452664 95.53118821 30.44957359 96.47694315 26.69921875 96.20703125 C21.67100277 94.44366384 18.09010627 90.15929455 14.44921875 86.41796875 C13.9078125 85.8765625 13.36640625 85.33515625 12.80859375 84.77734375 C11.68880208 83.65755208 10.56901042 82.53776042 9.44921875 81.41796875 C5.11519218 78.52861771 1.23574773 79.04989208 -3.86328125 79.04296875 C-5.2699707 79.00623047 -5.2699707 79.00623047 -6.70507812 78.96875 C-12.54644949 78.94405076 -15.91771607 79.52099804 -20.55078125 83.41796875 C-21.94296875 84.46984375 -21.94296875 84.46984375 -23.36328125 85.54296875 C-25.61899439 87.23101421 -25.61899439 87.23101421 -26.55078125 89.41796875 C-27.21078125 89.41796875 -27.87078125 89.41796875 -28.55078125 89.41796875 C-28.88078125 90.40796875 -29.21078125 91.39796875 -29.55078125 92.41796875 C-32.48495524 95.2077315 -34.60141971 95.84941768 -38.61328125 95.85546875 C-39.47050781 95.87480469 -40.32773437 95.89414063 -41.2109375 95.9140625 C-43.55078125 95.41796875 -43.55078125 95.41796875 -45.3046875 93.62109375 C-50.37286736 84.66042466 -46.14434586 72.04682034 -43.890625 62.671875 C-41.60329889 54.98810286 -37.50617203 46.74159004 -30.55078125 42.41796875 C-26.83798656 41.18037052 -23.23771779 41.06187978 -19.36328125 40.85546875 C-18.61369141 40.81228516 -17.86410156 40.76910156 -17.09179688 40.72460938 C-15.2449975 40.6187419 -13.39791291 40.51787115 -11.55078125 40.41796875 C-11.28599976 38.76027466 -11.28599976 38.76027466 -11.01586914 37.0690918 C-10.36053068 32.97053763 -9.70188484 28.8725207 -9.04223633 24.7746582 C-8.75715275 23.00071469 -8.47296735 21.22662658 -8.18969727 19.45239258 C-7.78247117 16.90277209 -7.37202207 14.35368834 -6.9609375 11.8046875 C-6.77181541 10.61391853 -6.77181541 10.61391853 -6.57887268 9.39909363 C-6.07733587 6.30528406 -5.54380967 3.397054 -4.55078125 0.41796875 C-2.55078125 -0.58203125 -2.55078125 -0.58203125 0 0 Z M17.44921875 50.41796875 C16.78921875 51.07796875 16.12921875 51.73796875 15.44921875 52.41796875 C15.76773645 54.52617672 15.76773645 54.52617672 16.44921875 56.41796875 C17.76921875 56.41796875 19.08921875 56.41796875 20.44921875 56.41796875 C20.10476994 53.9453011 20.10476994 53.9453011 19.44921875 51.41796875 C18.78921875 51.08796875 18.12921875 50.75796875 17.44921875 50.41796875 Z M-27.55078125 52.41796875 C-27.88078125 54.39796875 -28.21078125 56.37796875 -28.55078125 58.41796875 C-30.53078125 58.74796875 -32.51078125 59.07796875 -34.55078125 59.41796875 C-34.55078125 60.73796875 -34.55078125 62.05796875 -34.55078125 63.41796875 C-31.58078125 63.91296875 -31.58078125 63.91296875 -28.55078125 64.41796875 C-28.22078125 66.39796875 -27.89078125 68.37796875 -27.55078125 70.41796875 C-26.23078125 70.41796875 -24.91078125 70.41796875 -23.55078125 70.41796875 C-23.22078125 68.43796875 -22.89078125 66.45796875 -22.55078125 64.41796875 C-20.57078125 64.08796875 -18.59078125 63.75796875 -16.55078125 63.41796875 C-16.55078125 62.09796875 -16.55078125 60.77796875 -16.55078125 59.41796875 C-19.52078125 58.92296875 -19.52078125 58.92296875 -22.55078125 58.41796875 C-22.88078125 56.43796875 -23.21078125 54.45796875 -23.55078125 52.41796875 C-24.87078125 52.41796875 -26.19078125 52.41796875 -27.55078125 52.41796875 Z M9.44921875 58.41796875 C9.11921875 60.06796875 8.78921875 61.71796875 8.44921875 63.41796875 C9.43921875 63.74796875 10.42921875 64.07796875 11.44921875 64.41796875 C12.10921875 64.08796875 12.76921875 63.75796875 13.44921875 63.41796875 C13.11921875 61.76796875 12.78921875 60.11796875 12.44921875 58.41796875 C11.45921875 58.41796875 10.46921875 58.41796875 9.44921875 58.41796875 Z M24.44921875 58.41796875 C23.78921875 59.73796875 23.12921875 61.05796875 22.44921875 62.41796875 C24.42921875 63.40796875 24.42921875 63.40796875 26.44921875 64.41796875 C27.10921875 63.75796875 27.76921875 63.09796875 28.44921875 62.41796875 C28.13070105 60.30976078 28.13070105 60.30976078 27.44921875 58.41796875 C26.45921875 58.41796875 25.46921875 58.41796875 24.44921875 58.41796875 Z M17.44921875 65.41796875 C16.45921875 65.91296875 16.45921875 65.91296875 15.44921875 66.41796875 C15.77921875 68.06796875 16.10921875 69.71796875 16.44921875 71.41796875 C17.76921875 71.08796875 19.08921875 70.75796875 20.44921875 70.41796875 C20.44921875 69.09796875 20.44921875 67.77796875 20.44921875 66.41796875 C19.45921875 66.08796875 18.46921875 65.75796875 17.44921875 65.41796875 Z " fill="#FDFDFD" transform="translate(59.55078125,8.58203125)"/>
<path d="M0 0 C4.57304375 1.87997155 8.51826477 4.38989447 12.63671875 7.10546875 C13.44302734 7.61013672 14.24933594 8.11480469 15.08007812 8.63476562 C20.21899806 12.01372296 22.78066771 14.43324848 24.44921875 20.41796875 C24.85618219 25.04255331 23.82274424 28.69759815 21.69921875 32.79296875 C19.40242297 35.47256383 17.69360865 37.03910304 14.44921875 38.41796875 C12.13671875 38.10546875 12.13671875 38.10546875 10.44921875 37.41796875 C10.92359375 36.59296875 11.39796875 35.76796875 11.88671875 34.91796875 C13.68491474 30.89000974 14.07264425 27.78623296 14.44921875 23.41796875 C13.76859375 23.17046875 13.08796875 22.92296875 12.38671875 22.66796875 C8.88056792 21.17598967 5.73301507 19.34961364 2.44921875 17.41796875 C1.12826574 22.26550275 0.12833079 27.08604466 -0.69921875 32.04296875 C-1.00085937 33.84507813 -1.00085937 33.84507813 -1.30859375 35.68359375 C-1.71984628 38.17193185 -2.12350344 40.66153723 -2.51953125 43.15234375 C-5.01698765 57.88417515 -5.01698765 57.88417515 -10.55078125 63.41796875 C-13.67578125 63.54296875 -13.67578125 63.54296875 -16.55078125 63.41796875 C-16.55078125 62.09796875 -16.55078125 60.77796875 -16.55078125 59.41796875 C-17.52015625 59.43859375 -18.48953125 59.45921875 -19.48828125 59.48046875 C-22.55078125 59.41796875 -22.55078125 59.41796875 -23.55078125 58.41796875 C-23.59158908 56.41838511 -23.59332481 54.41751621 -23.55078125 52.41796875 C-24.87078125 52.41796875 -26.19078125 52.41796875 -27.55078125 52.41796875 C-27.53015625 53.38734375 -27.50953125 54.35671875 -27.48828125 55.35546875 C-27.55078125 58.41796875 -27.55078125 58.41796875 -28.55078125 59.41796875 C-30.55036489 59.45877658 -32.55123379 59.46051231 -34.55078125 59.41796875 C-34.55078125 60.73796875 -34.55078125 62.05796875 -34.55078125 63.41796875 C-33.58140625 63.39734375 -32.61203125 63.37671875 -31.61328125 63.35546875 C-28.55078125 63.41796875 -28.55078125 63.41796875 -27.55078125 64.41796875 C-27.50997342 66.41755239 -27.50823769 68.41842129 -27.55078125 70.41796875 C-26.89078125 70.41796875 -26.23078125 70.41796875 -25.55078125 70.41796875 C-28.96997593 79.77925903 -35.85304925 87.21573226 -42.55078125 94.41796875 C-43.54078125 94.08796875 -44.53078125 93.75796875 -45.55078125 93.41796875 C-47.70782843 88.07670907 -47.66414277 83.79830669 -46.86328125 78.16796875 C-46.76370117 77.42144043 -46.66412109 76.67491211 -46.56152344 75.90576172 C-44.97652725 64.68234067 -42.35091374 52.07330733 -33.36328125 44.29296875 C-28.8243892 41.26704071 -24.65711414 41.13749828 -19.36328125 40.85546875 C-18.61369141 40.81228516 -17.86410156 40.76910156 -17.09179688 40.72460938 C-15.2449975 40.6187419 -13.39791291 40.51787115 -11.55078125 40.41796875 C-11.28599976 38.76027466 -11.28599976 38.76027466 -11.01586914 37.0690918 C-10.36053068 32.97053763 -9.70188484 28.8725207 -9.04223633 24.7746582 C-8.75715275 23.00071469 -8.47296735 21.22662658 -8.18969727 19.45239258 C-7.78247117 16.90277209 -7.37202207 14.35368834 -6.9609375 11.8046875 C-6.77181541 10.61391853 -6.77181541 10.61391853 -6.57887268 9.39909363 C-6.07733587 6.30528406 -5.54380967 3.397054 -4.55078125 0.41796875 C-2.55078125 -0.58203125 -2.55078125 -0.58203125 0 0 Z " fill="#73DEEC" transform="translate(59.55078125,8.58203125)"/>
</svg>
