<svg version="1.1" id="Layer_1" xmlns="http://www.w3.org/2000/svg" xmlns:xlink="http://www.w3.org/1999/xlink" x="0px" y="0px"
	 width="100%" viewBox="0 0 284 69" enable-background="new 0 0 284 69" xml:space="preserve">
<path fill="#000000" opacity="1.000000" stroke="none" 
	d="
M197.000000,70.000000 
	C131.333359,70.000000 66.166710,70.000000 1.000052,70.000000 
	C1.000035,47.000031 1.000035,24.000063 1.000018,1.000071 
	C95.666603,1.000047 190.333206,1.000047 284.999878,1.000024 
	C284.999908,23.999926 284.999908,46.999851 284.999939,69.999893 
	C255.833328,70.000000 226.666672,70.000000 197.000000,70.000000 
M87.502075,47.000000 
	C82.403893,47.000000 77.305717,47.000000 72.324570,47.000000 
	C72.324570,51.015335 72.324570,54.416195 72.324570,57.659767 
	C87.050003,57.659767 101.448692,57.659767 115.641785,57.659767 
	C115.641785,48.247593 115.641785,39.178585 115.641785,29.869026 
	C104.661507,29.869026 94.037598,29.869026 83.388474,29.869026 
	C83.388474,28.106258 83.388474,26.609039 83.388474,24.842363 
	C94.050064,24.842363 104.328979,24.842363 114.765503,24.842363 
	C114.765503,21.163654 114.765503,17.765154 114.765503,14.252295 
	C100.464722,14.252295 86.399612,14.252295 72.270279,14.252295 
	C72.270279,23.572443 72.270279,32.638134 72.270279,42.118507 
	C83.286942,42.118507 94.040802,42.118507 104.711746,42.118507 
	C104.711746,43.940594 104.711746,45.339420 104.711746,47.000000 
	C99.118767,47.000000 93.809326,47.000000 87.502075,47.000000 
M66.992188,56.273754 
	C66.992188,42.210228 66.992188,28.146704 66.992188,14.375380 
	C51.529011,14.375380 36.803955,14.375380 22.379633,14.375380 
	C22.379633,29.143333 22.379633,43.534515 22.379633,57.999336 
	C36.576271,57.999336 50.393456,58.013668 64.210426,57.966499 
	C65.114090,57.963413 66.016144,57.489212 66.992188,56.273754 
M216.000000,24.521555 
	C216.000000,21.082479 216.000000,17.643404 216.000000,14.284391 
	C200.697525,14.284391 185.958954,14.284391 171.285004,14.284391 
	C171.285004,28.978592 171.285004,43.386604 171.285004,57.717140 
	C174.990326,57.717140 178.404282,57.717140 181.858154,57.717140 
	C181.977600,55.022526 182.084641,52.607727 182.213318,49.704933 
	C187.482315,51.174904 193.434250,47.287746 197.289795,52.900982 
	C201.962250,59.703526 208.469574,58.003040 215.845169,57.738525 
	C213.188629,54.798714 211.180252,52.576187 208.957230,50.116104 
	C215.998474,49.901020 215.999039,49.901020 215.999832,43.515778 
	C216.000595,37.516205 216.000000,31.516630 216.000000,24.521555 
M265.000000,27.507935 
	C265.000000,23.073086 265.000000,18.638237 265.000000,14.284693 
	C250.025650,14.284693 235.622604,14.284693 221.281982,14.284693 
	C221.281982,28.976774 221.281982,43.382458 221.281982,57.720856 
	C224.983444,57.720856 228.396637,57.720856 231.852524,57.720856 
	C231.976135,55.033104 232.087311,52.615314 232.194794,50.278343 
	C239.650177,50.278343 246.730957,50.278343 253.856262,50.278343 
	C253.976898,52.968723 254.085190,55.383869 254.189651,57.713860 
	C257.978760,57.713860 261.385559,57.713860 265.000000,57.713860 
	C265.000000,47.787804 265.000000,38.146263 265.000000,27.507935 
M158.435699,14.000000 
	C146.365112,14.000000 134.294540,14.000000 122.308685,14.000000 
	C122.308685,17.998795 122.308685,21.395283 122.308685,25.202209 
	C127.676704,25.202209 132.741638,25.202209 138.199005,25.202209 
	C138.199005,36.349167 138.199005,47.072002 138.199005,57.683193 
	C142.013824,57.683193 145.410095,57.683193 149.201843,57.683193 
	C149.201843,46.650566 149.201843,35.930901 149.201843,24.800919 
	C155.010284,24.800919 160.410553,24.800919 165.676025,24.800919 
	C165.676025,20.975908 165.676025,17.580353 165.676025,14.000000 
	C163.374710,14.000000 161.396072,14.000000 158.435699,14.000000 
z"/>
<path fill="#00FFFF" opacity="1.000000" stroke="none" 
	d="
M88.000984,47.000000 
	C93.809326,47.000000 99.118767,47.000000 104.711746,47.000000 
	C104.711746,45.339420 104.711746,43.940594 104.711746,42.118507 
	C94.040802,42.118507 83.286942,42.118507 72.270279,42.118507 
	C72.270279,32.638134 72.270279,23.572443 72.270279,14.252295 
	C86.399612,14.252295 100.464722,14.252295 114.765503,14.252295 
	C114.765503,17.765154 114.765503,21.163654 114.765503,24.842363 
	C104.328979,24.842363 94.050064,24.842363 83.388474,24.842363 
	C83.388474,26.609039 83.388474,28.106258 83.388474,29.869026 
	C94.037598,29.869026 104.661507,29.869026 115.641785,29.869026 
	C115.641785,39.178585 115.641785,48.247593 115.641785,57.659767 
	C101.448692,57.659767 87.050003,57.659767 72.324570,57.659767 
	C72.324570,54.416195 72.324570,51.015335 72.324570,47.000000 
	C77.305717,47.000000 82.403893,47.000000 88.000984,47.000000 
z"/>
<path fill="#00FFFF" opacity="1.000000" stroke="none" 
	d="
M66.955566,56.753952 
	C66.016144,57.489212 65.114090,57.963413 64.210426,57.966499 
	C50.393456,58.013668 36.576271,57.999336 22.379633,57.999336 
	C22.379633,43.534515 22.379633,29.143333 22.379633,14.375380 
	C36.803955,14.375380 51.529011,14.375380 66.992188,14.375380 
	C66.992188,28.146704 66.992188,42.210228 66.955566,56.753952 
M46.467422,47.000000 
	C49.232109,47.000000 51.996796,47.000000 54.709938,47.000000 
	C54.709938,39.362679 54.709938,32.307301 54.709938,25.291637 
	C47.694008,25.291637 40.971264,25.291637 34.292274,25.291637 
	C34.292274,32.642227 34.292274,39.697189 34.292274,47.000000 
	C38.215588,47.000000 41.849083,47.000000 46.467422,47.000000 
z"/>
<path fill="#FFFFFF" opacity="1.000000" stroke="none" 
	d="
M216.000000,25.019306 
	C216.000000,31.516630 216.000595,37.516205 215.999832,43.515778 
	C215.999039,49.901020 215.998474,49.901020 208.957230,50.116104 
	C211.180252,52.576187 213.188629,54.798714 215.845169,57.738525 
	C208.469574,58.003040 201.962250,59.703526 197.289795,52.900982 
	C193.434250,47.287746 187.482315,51.174904 182.213318,49.704933 
	C182.084641,52.607727 181.977600,55.022526 181.858154,57.717140 
	C178.404282,57.717140 174.990326,57.717140 171.285004,57.717140 
	C171.285004,43.386604 171.285004,28.978592 171.285004,14.284391 
	C185.958954,14.284391 200.697525,14.284391 216.000000,14.284391 
	C216.000000,17.643404 216.000000,21.082479 216.000000,25.019306 
M202.282990,38.996193 
	C202.854767,38.233028 203.884369,37.490860 203.920486,36.703125 
	C204.093765,32.925102 203.998306,29.134754 203.998306,25.217758 
	C196.498062,25.217758 189.426102,25.217758 182.220703,25.217758 
	C182.220703,29.842333 182.220703,34.247055 182.220703,38.999729 
	C188.729248,38.999729 195.023560,38.999729 202.282990,38.996193 
z"/>
<path fill="#FFFFFF" opacity="1.000000" stroke="none" 
	d="
M265.000000,28.006329 
	C265.000000,38.146263 265.000000,47.787804 265.000000,57.713860 
	C261.385559,57.713860 257.978760,57.713860 254.189651,57.713860 
	C254.085190,55.383869 253.976898,52.968723 253.856262,50.278343 
	C246.730957,50.278343 239.650177,50.278343 232.194794,50.278343 
	C232.087311,52.615314 231.976135,55.033104 231.852524,57.720856 
	C228.396637,57.720856 224.983444,57.720856 221.281982,57.720856 
	C221.281982,43.382458 221.281982,28.976774 221.281982,14.284693 
	C235.622604,14.284693 250.025650,14.284693 265.000000,14.284693 
	C265.000000,18.638237 265.000000,23.073086 265.000000,28.006329 
M236.622070,39.000000 
	C242.379791,39.000000 248.137512,39.000000 253.666229,39.000000 
	C253.666229,33.926731 253.666229,29.521494 253.666229,25.334919 
	C246.253113,25.334919 239.177124,25.334919 232.000107,25.334919 
	C232.000107,28.993536 232.220062,32.337166 231.936081,35.637428 
	C231.670731,38.721123 233.046555,39.391422 236.622070,39.000000 
z"/>
<path fill="#00FFFF" opacity="1.000000" stroke="none" 
	d="
M158.926575,14.000000 
	C161.396072,14.000000 163.374710,14.000000 165.676025,14.000000 
	C165.676025,17.580353 165.676025,20.975908 165.676025,24.800919 
	C160.410553,24.800919 155.010284,24.800919 149.201843,24.800919 
	C149.201843,35.930901 149.201843,46.650566 149.201843,57.683193 
	C145.410095,57.683193 142.013824,57.683193 138.199005,57.683193 
	C138.199005,47.072002 138.199005,36.349167 138.199005,25.202209 
	C132.741638,25.202209 127.676704,25.202209 122.308685,25.202209 
	C122.308685,21.395283 122.308685,17.998795 122.308685,14.000000 
	C134.294540,14.000000 146.365112,14.000000 158.926575,14.000000 
z"/>
<path fill="#000000" opacity="1.000000" stroke="none" 
	d="
M45.974998,47.000000 
	C41.849083,47.000000 38.215588,47.000000 34.292274,47.000000 
	C34.292274,39.697189 34.292274,32.642227 34.292274,25.291637 
	C40.971264,25.291637 47.694008,25.291637 54.709938,25.291637 
	C54.709938,32.307301 54.709938,39.362679 54.709938,47.000000 
	C51.996796,47.000000 49.232109,47.000000 45.974998,47.000000 
z"/>
<path fill="#000000" opacity="1.000000" stroke="none" 
	d="
M201.800430,38.997963 
	C195.023560,38.999729 188.729248,38.999729 182.220703,38.999729 
	C182.220703,34.247055 182.220703,29.842333 182.220703,25.217758 
	C189.426102,25.217758 196.498062,25.217758 203.998306,25.217758 
	C203.998306,29.134754 204.093765,32.925102 203.920486,36.703125 
	C203.884369,37.490860 202.854767,38.233028 201.800430,38.997963 
z"/>
<path fill="#000000" opacity="1.000000" stroke="none" 
	d="
M236.137207,38.999992 
	C233.046555,39.391422 231.670731,38.721123 231.936081,35.637428 
	C232.220062,32.337166 232.000107,28.993536 232.000107,25.334919 
	C239.177124,25.334919 246.253113,25.334919 253.666229,25.334919 
	C253.666229,29.521494 253.666229,33.926731 253.666229,39.000000 
	C248.137512,39.000000 242.379791,39.000000 236.137207,38.999992 
z"/>
</svg>